<?xml version="1.0" encoding="utf-8"?>
<!-- Generator: $$$/GeneralStr/196=Adobe Illustrator 27.6.0, SVG Export Plug-In . SVG Version: 6.00 Build 0)  -->
<svg version="1.1" id="Layer_1" xmlns="http://www.w3.org/2000/svg" xmlns:xlink="http://www.w3.org/1999/xlink" x="0px" y="0px"
	 viewBox="0 0 2019.59 662.68" style="enable-background:new 0 0 2019.59 662.68;" xml:space="preserve">
<style type="text/css">
	.st0{fill:#1D2856;}
	.st1{fill:url(#SVGID_1_);}
	.st2{fill:url(#SVGID_00000011735710764932157370000004942685148382062731_);}
	.st3{fill:url(#SVGID_00000047777134716826479610000004569802794077089937_);}
	.st4{fill:url(#SVGID_00000072243845946160376110000017744075777503737264_);}
	.st5{fill:url(#SVGID_00000077285909373606914000000011852931575817140108_);}
	.st6{fill:url(#SVGID_00000143582598233910022610000016646595244617199757_);}
	.st7{fill:url(#SVGID_00000054969895216064187830000000444092660927066770_);}
	.st8{fill:url(#SVGID_00000122700479190043434610000001938366604231156414_);}
	.st9{fill:#E76A35;}
</style>
<g>
	<path class="st0" d="M118.57,41.33L16.29,621.35h580.02L698.59,41.33H118.57z M442.94,450.43h-58.02l-70.91-146.92l-26.13,146.92
		h-58.02l42.07-238.19h58.02l70.91,147.59L427,212.25h58.02L442.94,450.43z"/>
	<path class="st0" d="M770.92,41.33L668.65,621.35h580.02l102.27-580.02H770.92z M1088.15,450.43h-70.23l-10.52-156.42
		l-66.84,156.42h-70.23L852,212.25h62.09l3.73,173.38l72.95-173.38h64.13l10.18,172.36l64.81-172.36h62.43L1088.15,450.43z"/>
	<g>
		<polygon class="st0" points="1981.11,167.13 2003.29,41.33 1875.55,41.33 		"/>
		<path class="st0" d="M1839,41.33h-415.73L1321,621.35h580.02l73.74-418.22L1839,41.33z M1769.53,274
			c-2.49,14.03-8.26,25.68-17.3,34.95c-9.05,9.28-19.91,15.72-32.57,19.34c11.31,2.49,20.24,8.03,26.8,16.63
			c6.56,8.6,9.84,18.66,9.84,30.2c0,3.62-0.34,7.13-1.02,10.52c-3.39,19.91-13.12,35.68-29.18,47.33
			c-16.06,11.65-36.53,17.47-61.41,17.47h-110.95l42.07-238.19h107.22c21.49,0,38.11,4.41,49.88,13.23
			c11.76,8.82,17.64,21.04,17.64,36.64C1770.55,265.97,1770.21,269.93,1769.53,274z"/>
		<path class="st0" d="M1702.69,263.31c-4.3-3.5-10.63-5.26-19-5.26h-38l-8.82,50.89h37.66c9.72,0,17.53-2.15,23.41-6.45
			c5.88-4.29,9.5-10.52,10.86-18.66c0.22-1.36,0.34-3.16,0.34-5.43C1709.14,271.85,1706.99,266.82,1702.69,263.31z"/>
		<path class="st0" d="M1691.16,356.28c-4.75-3.73-11.31-5.6-19.68-5.6h-42.07l-9.5,53.61h42.75c9.95,0,17.87-2.26,23.75-6.79
			c5.88-4.52,9.61-11.08,11.2-19.68c0.45-2.71,0.68-4.75,0.68-6.11C1698.28,365.16,1695.91,360.01,1691.16,356.28z"/>
	</g>
	<g>
		<linearGradient id="SVGID_1_" gradientUnits="userSpaceOnUse" x1="368.7548" y1="341.2926" x2="605.1992" y2="549.2926">
			<stop  offset="0" style="stop-color:#FFFFFF;stop-opacity:0.05"/>
			<stop  offset="1" style="stop-color:#0D52BD;stop-opacity:0.4"/>
		</linearGradient>
		<polygon class="st1" points="482.8,224.77 442.94,450.43 384.92,450.43 336.17,349.42 300.45,379.79 287.88,450.43 229.86,450.43 
			232.08,437.91 16.29,621.35 596.31,621.35 698.59,41.33 		"/>
		
			<linearGradient id="SVGID_00000111175802324763155760000008346647102725189808_" gradientUnits="userSpaceOnUse" x1="395.6359" y1="310.7354" x2="632.0804" y2="518.7355">
			<stop  offset="0" style="stop-color:#FFFFFF;stop-opacity:0.05"/>
			<stop  offset="1" style="stop-color:#0D52BD;stop-opacity:0.4"/>
		</linearGradient>
		<polygon style="fill:url(#SVGID_00000111175802324763155760000008346647102725189808_);" points="414.5,282.83 378.55,313.39 
			400.87,359.84 		"/>
	</g>
	<g>
		
			<linearGradient id="SVGID_00000180362877485541886160000017845823549329485491_" gradientUnits="userSpaceOnUse" x1="1070.8789" y1="287.6147" x2="1291.3234" y2="522.2813">
			<stop  offset="0" style="stop-color:#FFFFFF;stop-opacity:0.05"/>
			<stop  offset="1" style="stop-color:#0D52BD;stop-opacity:0.4"/>
		</linearGradient>
		<polygon style="fill:url(#SVGID_00000180362877485541886160000017845823549329485491_);" points="1120.48,237.24 1059.44,289.14 
			1065.07,384.61 		"/>
		
			<linearGradient id="SVGID_00000114767743661296963350000017602563036216425917_" gradientUnits="userSpaceOnUse" x1="1016.6097" y1="338.5948" x2="1237.0542" y2="573.2615">
			<stop  offset="0" style="stop-color:#FFFFFF;stop-opacity:0.05"/>
			<stop  offset="1" style="stop-color:#0D52BD;stop-opacity:0.4"/>
		</linearGradient>
		<polygon style="fill:url(#SVGID_00000114767743661296963350000017602563036216425917_);" points="1149.89,212.25 1192.31,212.25 
			1088.15,450.43 1017.91,450.43 1009.9,331.25 980.97,355.84 940.55,450.43 870.32,450.43 870.28,449.94 668.65,621.35 
			1248.67,621.35 1350.94,41.33 		"/>
	</g>
	<g>
		
			<linearGradient id="SVGID_00000031910260380212117100000011439801735789710247_" gradientUnits="userSpaceOnUse" x1="1995.7444" y1="108.6938" x2="2200.1887" y2="354.0271">
			<stop  offset="0" style="stop-color:#FFFFFF;stop-opacity:0.05"/>
			<stop  offset="1" style="stop-color:#E76A35;stop-opacity:0.4"/>
		</linearGradient>
		<polygon style="fill:url(#SVGID_00000031910260380212117100000011439801735789710247_);" points="1981.11,167.13 2003.29,41.33 
			1928.74,104.71 		"/>
		
			<linearGradient id="SVGID_00000011727090876508783560000005023387168410042784_" gradientUnits="userSpaceOnUse" x1="1641.1656" y1="404.1761" x2="1845.6101" y2="649.5094">
			<stop  offset="0" style="stop-color:#FFFFFF;stop-opacity:0.05"/>
			<stop  offset="1" style="stop-color:#0D52BD;stop-opacity:0.4"/>
		</linearGradient>
		<path style="fill:url(#SVGID_00000011727090876508783560000005023387168410042784_);" d="M1907.4,122.85l-140.72,119.63
			c2.57,5.81,3.87,12.35,3.87,19.65c0,3.85-0.34,7.8-1.02,11.88c-2.49,14.03-8.26,25.68-17.3,34.95
			c-9.05,9.28-19.91,15.72-32.57,19.34c11.31,2.49,20.24,8.03,26.8,16.63c6.56,8.6,9.84,18.66,9.84,30.2
			c0,3.62-0.34,7.13-1.02,10.52c-3.39,19.91-13.12,35.68-29.18,47.33c-16.06,11.65-36.53,17.47-61.41,17.47h-110.95l5.6-31.7
			L1321,621.35h580.02l73.74-418.22L1907.4,122.85z"/>
		
			<linearGradient id="SVGID_00000090990940441129930250000005105498853865309604_" gradientUnits="userSpaceOnUse" x1="1661.562" y1="387.179" x2="1866.0065" y2="632.5123">
			<stop  offset="0" style="stop-color:#FFFFFF;stop-opacity:0.05"/>
			<stop  offset="1" style="stop-color:#0D52BD;stop-opacity:0.4"/>
		</linearGradient>
		<path style="fill:url(#SVGID_00000090990940441129930250000005105498853865309604_);" d="M1686.41,397.5
			c5.88-4.52,9.61-11.08,11.2-19.68c0.45-2.71,0.68-4.75,0.68-6.11c0-6.56-2.38-11.71-7.13-15.44c-4.75-3.73-11.31-5.6-19.68-5.6
			h-32.08l-11.76,10l-7.73,43.61h42.75C1672.61,404.29,1680.52,402.03,1686.41,397.5z"/>
		
			<linearGradient id="SVGID_00000064317136873597693840000017068344393193836442_" gradientUnits="userSpaceOnUse" x1="1726.0574" y1="333.4329" x2="1930.5018" y2="578.7662">
			<stop  offset="0" style="stop-color:#FFFFFF;stop-opacity:0.05"/>
			<stop  offset="1" style="stop-color:#0D52BD;stop-opacity:0.4"/>
		</linearGradient>
		<path style="fill:url(#SVGID_00000064317136873597693840000017068344393193836442_);" d="M1704.71,295.15l-12.36,10.51
			c2.02-0.88,3.89-1.92,5.59-3.16C1700.71,300.48,1702.95,298.02,1704.71,295.15z"/>
	</g>
</g>
<path class="st9" d="M16.29,621.35"/>
</svg>
