<?xml version="1.0" encoding="utf-8"?>
<!-- Generator: Adobe Illustrator 27.3.1, SVG Export Plug-In . SVG Version: 6.00 Build 0)  -->
<svg version="1.2" baseProfile="tiny" id="Layer_1" xmlns="http://www.w3.org/2000/svg" xmlns:xlink="http://www.w3.org/1999/xlink"
	 x="0px" y="0px" viewBox="0 0 1920 347" overflow="visible" xml:space="preserve">
<g>
	<linearGradient id="SVGID_1_" gradientUnits="userSpaceOnUse" x1="39.0355" y1="202.2304" x2="1432.3165" y2="-76.001">
		<stop  offset="0" style="stop-color:#000012"/>
		<stop  offset="1" style="stop-color:#111111"/>
	</linearGradient>
	<path fill="url(#SVGID_1_)" d="M199.3,289.9l-22.9-28.2c-11.8,3.7-24.8,5.7-38.5,5.7c-65.4,0-112.1-44.7-112.1-106.9
		c0-62.2,46.7-106.9,112.1-106.9c65.3,0,111.8,44.5,111.8,106.9c0,32-12.2,59.3-33,78.3l42.2,51.1H199.3z M137.9,215.2
		c31,0,53.4-22.9,53.4-54.7c0-31.8-22.4-54.7-53.4-54.7c-31,0-53.7,23-53.7,54.7C84.2,192.2,106.9,215.2,137.9,215.2z"/>
	
		<linearGradient id="SVGID_00000006708009829789428560000003950471320602434465_" gradientUnits="userSpaceOnUse" x1="44.7025" y1="230.6084" x2="1437.9834" y2="-47.623">
		<stop  offset="0" style="stop-color:#000012"/>
		<stop  offset="1" style="stop-color:#111111"/>
	</linearGradient>
	<path fill="url(#SVGID_00000006708009829789428560000003950471320602434465_)" d="M270.9,197V58.7h63.5v137.1
		c0,22,14.2,36.3,35,36.3c20.7,0,35-14.2,35-36.3V58.7h63.5V197c0,55.5-41,93-98.5,93C311.9,290,270.9,252.5,270.9,197z"/>
	
		<linearGradient id="SVGID_00000159465704671455145520000004187744570874920582_" gradientUnits="userSpaceOnUse" x1="56.2569" y1="288.4688" x2="1449.5378" y2="10.2374">
		<stop  offset="0" style="stop-color:#000012"/>
		<stop  offset="1" style="stop-color:#111111"/>
	</linearGradient>
	<path fill="url(#SVGID_00000159465704671455145520000004187744570874920582_)" d="M636.7,247.7h-80l-12.5,36.6h-66.6l88.6-225.6
		H627l90.5,225.6h-68.4L636.7,247.7z M596.6,129.1L571.9,199h49.7L596.6,129.1z"/>
	
		<linearGradient id="SVGID_00000150104818068471386310000005202063458577586840_" gradientUnits="userSpaceOnUse" x1="63.6462" y1="325.4716" x2="1456.9271" y2="47.2401">
		<stop  offset="0" style="stop-color:#000012"/>
		<stop  offset="1" style="stop-color:#111111"/>
	</linearGradient>
	<path fill="url(#SVGID_00000150104818068471386310000005202063458577586840_)" d="M824,215.3h-22.5v69h-62.1V58.7h97.8
		c48.6,0,83.9,32.7,83.9,79.8c0,27.7-13.5,50.4-35.8,63.7l44.8,82h-69.4L824,215.3z M801.4,162.9h28.4c17.4,0,27.4-10.5,27.4-24.6
		c0-14.1-10-24.4-27.4-24.4h-28.4V162.9z"/>
	
		<linearGradient id="SVGID_00000056405321649456630780000005207821089784152988_" gradientUnits="userSpaceOnUse" x1="74.232" y1="378.4815" x2="1467.5129" y2="100.2501">
		<stop  offset="0" style="stop-color:#000012"/>
		<stop  offset="1" style="stop-color:#111111"/>
	</linearGradient>
	<path fill="url(#SVGID_00000056405321649456630780000005207821089784152988_)" d="M1180.2,284.3l-17.6-129.9l-59.8,130.3h-18.4
		l-59.8-130.2l-17.4,129.9h-63l34.1-225.6h62.1l53.1,122.7l53.5-122.7h62.1l33.8,225.6H1180.2z"/>
	
		<linearGradient id="SVGID_00000155108898219186056980000014243547961111115953_" gradientUnits="userSpaceOnUse" x1="85.9406" y1="437.1141" x2="1479.2216" y2="158.8827">
		<stop  offset="0" style="stop-color:#000012"/>
		<stop  offset="1" style="stop-color:#111111"/>
	</linearGradient>
	<path fill="url(#SVGID_00000155108898219186056980000014243547961111115953_)" d="M1410.8,247.7h-80l-12.5,36.6h-66.6l88.6-225.6
		h60.7l90.5,225.6h-68.4L1410.8,247.7z M1370.7,129.1l-24.7,69.9h49.7L1370.7,129.1z"/>
	<path fill="#333333" d="M1580.9,194c19.7,5,32.4,20.9,32.4,42.3c0,28-21.7,48.1-51.9,48.1c-29.6,0-49.9-19.3-50.8-47.8h35.3
		c0.4,9.7,6.5,16.2,15.5,16.2c9.4,0,16-6.9,16-17c0-10.1-6.8-16.3-17.6-16.3h-22.1v-7.7l22.4-36.9h-46.2v-31.4h94.5v6.3L1580.9,194
		L1580.9,194z"/>
	<path fill="#333333" d="M1737.7,233.3c0,30.2-22.3,51-54.6,51c-32.5,0-54.8-20.8-54.8-50.8c0-14.1,4.2-28.1,15.8-47.4l25.3-42.7
		h39.8c-9.1,15.2-18.2,30.3-27.3,45.5c3-0.5,6-0.7,9.1-0.7C1718.5,188.2,1737.7,206.7,1737.7,233.3z M1702.2,233.3
		c0-11.6-8-19.6-19.2-19.6c-11.2,0-19.2,7.9-19.2,19.6c0,11.5,8.1,19.4,19.2,19.4C1694.3,252.7,1702.2,244.8,1702.2,233.3z"/>
	<path fill="#333333" d="M1749.8,212c0-44.1,23.6-72.3,60.3-72.3c36.7,0,60.3,28.2,60.3,72.3c0,44-23.7,72.3-60.3,72.3
		C1773.5,284.3,1749.8,256,1749.8,212z M1832.6,212.1c0-25.4-8.1-39.6-22.5-39.6c-14.5,0-22.5,14.1-22.5,39.5
		c0,25.4,8,39.5,22.5,39.5C1824.6,251.5,1832.6,237.5,1832.6,212.1z"/>
	<g>
		<polygon fill="#0071BC" points="1410.8,247.7 1423.2,284.3 1491.6,284.3 1401.1,58.7 1345.3,58.7 		"/>
	</g>
</g>
</svg>
