<svg xmlns="http://www.w3.org/2000/svg" viewBox="0 0 500 396">
<g>
	<ellipse fill="#D8D8D8" cx="255.8" cy="378.4" rx="73.4" ry="7.7"/>
	<g>
		<path fill="#D2487B" d="M280.1,84.6c0,0-2,26,10.3,58.3l-47.6-8.8c0,0,23.4-16.4,19.1-45.6L280.1,84.6z"/>
		<path fill="#D2487B" d="M198.3,97.7c0,0,4.4,20.3-1.8,47.2l36.6-12.2c0,0-20.3-10.4-20.1-34L198.3,97.7z"/>
		<g>
			<path fill="#94053A" d="M397.5,75.6c-9.8-9.3-38,26.5-34.8,50.1c3.2,23.5,38.5,42,68.7,39.4c30.3-2.6,57.5-46.9,53-77.2
				c-4.5-30.3-65.6-69.2-77-53.5S436,66.5,431,92.9c-4.9,26.4-25.4,39-32.6,30C383.8,104.5,405.9,83.5,397.5,75.6z"/>
			<path fill="#94053A" d="M431.4,157.5c0,0-4.2,62.3-80.1,79.6l-8.2-14c0,0,50.2-29.9,38.2-80.5l27.8-1.1L431.4,157.5z"/>
		</g>
		<g>
			<path fill="#94053A" d="M98.9,75.6c9.8-9.3,38,26.5,34.8,50.1c-3.2,23.5-38.5,42-68.7,39.4s-57.5-46.9-53-77.2
				c4.5-30.3,65.6-69.2,77-53.5S60.4,66.5,65.4,92.9c4.9,26.4,25.4,39,32.6,30C112.6,104.5,90.5,83.5,98.9,75.6z"/>
			<path fill="#94053A" d="M65,157.5c0,0,4.2,62.3,80.1,79.6l8.2-14c0,0-50.2-29.9-38.2-80.5l-27.8-1.1L65,157.5z"/>
		</g>
		<g>
			<path fill="#94053A" d="M304.3,307.9c0,0,15.5,41.2-4.7,63.1c-20.1,21.9-25.4-0.2-21.3-17.2c4.1-17.1,18.3-14.8,11.2-38.7
				l8.9-10.7L304.3,307.9z"/>
			<path fill="#94053A" d="M207.3,307.9c0,0-15.5,41.2,4.7,63.1c20.1,21.9,25.4-0.2,21.3-17.2c-4.1-17.1-18.3-14.8-11.2-38.7
				l-8.9-10.7L207.3,307.9z"/>
		</g>
		
			<ellipse transform="matrix(0.7071 -0.7071 0.7071 0.7071 -79.5971 237.1028)" fill="#D2487B" cx="246.4" cy="214.6" rx="93.3" ry="93.3"/>
		<path fill="#D61B61" d="M364.2,217.4c0,65-52.7,117.7-117.7,117.7c-65,0-117.7-52.7-117.7-117.7c0-13.6,2.3-26.7,6.6-38.9
			l12.9,8.3l15.7-24.5l14.9,18.7l22.9-34.8l4.6,23.3l13.2-13l10.5,19.9l16.4-30.6l18.7,19.5l13.4-31.2l28.3,18.2l13.9-26.3
			C347.2,147.6,364.2,180.5,364.2,217.4z"/>
		
			<ellipse transform="matrix(3.425979e-03 -1 1 3.425979e-03 210.4336 323.9272)" fill="#EFBA25" cx="267.7" cy="56.4" rx="42.1" ry="30.4"/>
		
			<ellipse transform="matrix(3.419748e-03 -1 1 3.419748e-03 223.2072 311.169)" fill="#0A111C" cx="267.7" cy="43.6" rx="18.9" ry="16.9"/>
		<ellipse transform="matrix(0.9901 -0.1404 0.1404 0.9901 -8.365 29.516)" fill="#EFBA25" cx="205" cy="74" rx="24.2" ry="33.6"/>
		
			<ellipse transform="matrix(0.9901 -0.1404 0.1404 0.9901 -6.9601 29.2233)" fill="#0A111C" cx="203.6" cy="63.9" rx="13.5" ry="15.1"/>
		<path fill="#EF307E" d="M303.3,270.8c0,23.6-25.5,42.7-56.9,42.7s-56.9-19.1-56.9-42.7C189.5,247.2,303.3,247.2,303.3,270.8z"/>
	</g>
</g>
</svg>
