
<svg xmlns="http://www.w3.org/2000/svg" viewBox="0 0 500 500">
<g>
	<ellipse fill="#D8D8D8" cx="291.6" cy="450.7" rx="184.4" ry="12"/>
	<g>
		<path fill="#991D00" d="M310.9,168.9c0,0,69.1,12.9,73.8,35.1c4.7,22.2-14.6,31.9-8.2,56s17.5,26.5-1.8,49.8
			c-19.3,23.4,7.6,22.2,1.2,42.1c-6.4,19.9,9.4,26.3,25.1,17.5c15.8-8.8,38.6-4.7,38.6,11.7s25.3,9,25.2,38.1
			c-0.1,29.1-138.1-20.6-138.1-20.6s-28.1,0-28.1-4.1s-4.7-81.9-4.7-81.9L310.9,168.9z"/>
		<path fill="#E43E02" d="M148.4,167.5c40.5-51.8,185.2-40.4,199.2,44.6c11.3,68.4-11.5,66.7-11.5,88.6c0,21.9,14.1,10.5,7.1,61.4
			c-7,50.9,93.8,5.3,116.6,46.5c22.8,41.2-12.3,33.3-21,19.3s-73.7,38.6-111.4,25.4c-37.7-13.2-72.8-16.7-86.8-2.6
			c-14,14-29.8-13.2-59.6-8.8s-66.6,8.8-76.3-42.1C95.1,348.9,80.8,254,148.4,167.5z"/>
		<path fill="#E43E02" d="M304.4,103.4c0,0-13.7,35.1-10.2,84.8l-62-32.2c0,0,39.2-12.9,45.6-55L304.4,103.4z"/>
		<path fill="#E43E02" d="M128.4,120.7c0,0,13.7,35.1,10.2,84.8l62-32.2c0,0-39.2-12.9-45.6-55L128.4,120.7z"/>
		<path fill="#BA2D04" d="M245,301.6c-7.1,8.3-13.8,16.9-19.9,25.8c-3.1,4.5-5.9,9-8.5,13.7c-2.6,4.7-5.1,9.5-7,14.4
			c-1.9,4.9-3.4,10-4.1,15c-0.6,5-0.4,10.2,0.9,15c1.2,4.8,3.4,9.4,6.7,12.9c3.2,3.5,7.5,5.9,11.7,5.9c4.2,0.1,8.3-2.3,11.2-6.1
			c1.4-1.9,2.7-4,3.7-6.3c0.5-1.2,0.9-2.3,1.3-3.5c0.4-1.3,0.7-2.3,1.2-3.9l0.8-2.2c0.3-0.7,0.7-1.4,1-2.1l0.5-1l0.7-1
			c0.5-0.6,0.9-1.3,1.4-1.9c2.1-2.5,4.8-4.3,7.6-5.6c5.7-2.5,11.6-2.9,17.1-3.1c5.5-0.2,10.9-0.1,16.1-0.7c5.2-0.6,10.2-1.9,14-5.2
			c3.9-3.2,6.1-8.1,7.4-13.3c1.3-5.2,1.6-10.6,1.8-16.1c0.6,5.4,0.9,10.9,0.1,16.5c-0.2,1.4-0.4,2.8-0.8,4.1l-0.6,2
			c-0.2,0.7-0.5,1.3-0.8,2c-1.1,2.7-2.7,5.1-4.8,7.2c-4.3,4.3-10.2,6.2-15.7,7.2c-5.6,1-11.1,1.1-16.5,1.6c-2.7,0.2-5.3,0.5-7.8,1
			c-2.5,0.5-4.9,1.1-7,2.2c-2.1,1.1-3.9,2.4-5.3,4.2c-0.4,0.4-0.6,0.9-1,1.4l-0.5,0.7l-0.4,0.8l-0.7,1.6l-0.5,1.7
			c-0.3,1-0.8,2.6-1.2,3.9c-0.5,1.4-1,2.8-1.5,4.1c-1.1,2.7-2.6,5.4-4.4,7.8c-1.8,2.5-4.2,4.7-7,6.3c-2.8,1.7-6.2,2.6-9.5,2.6
			c-3.3,0-6.6-1-9.4-2.5c-2.8-1.5-5.3-3.5-7.3-5.8c-4.1-4.6-6.7-10.2-8-15.9c-1.3-5.7-1.5-11.7-0.6-17.4c0.9-5.7,2.8-11.1,5.1-16.3
			c4.6-10.3,10.9-19.4,17.8-28C229.3,316.9,236.8,308.8,245,301.6z"/>
		<path fill="#E43E02" d="M142.4,237.3c0,0-45.4-39.5-77.7-36.9c-32.3,2.6-43.7,36.9-7,43.7c36.6,6.7-3.2,69.8,59.5,61.2"/>
		<path fill="#0C1C1D" d="M255.2,280.9c-1.6,2.2-3.3,4.2-5.1,6.1c-12,11.9-28.9,17.6-45.4,19.3c-10.4,1.1-21.1-0.2-30.9-4.1
			c-2.8-1.1-5.6-2.4-8.2-3.9c-10.4-6-19-15-23.5-26.4c-4.7-12-1.9-29,8.9-35.3c2.2-1.3,4.5-2,6.8-2.2c6.3-0.6,12.9,1.9,19.3,2.7
			c0.9,0.1,1.8,0.2,2.8,0.2c2.1,0.1,4.3,0,6.4-0.3c5.7-0.7,11.3-2.6,16.7-4.7c2.6-1,5.3-2.2,8-3.2c7.3-2.9,14.9-5.5,22.7-4.8
			c9,0.9,16.9,5.7,22.8,12.5C267.6,249.5,264.4,267.8,255.2,280.9z"/>
		<path fill="#D3165C" d="M255.2,280.9c-1.6,2.2-3.3,4.2-5.1,6.1c-12,11.9-28.9,17.6-45.4,19.3c-10.4,1.1-21.1-0.2-30.9-4.1
			c-2.8-1.1-5.6-2.4-8.2-3.9c1.5-2.2,3.3-4.3,5.1-6.1c12-11.9,28.9-17.6,45.4-19.3c10.4-1.1,21.1,0.2,30.9,4.1
			C249.9,278,252.6,279.3,255.2,280.9z"/>
		<path fill="#FEF9FA" d="M211,229v33.8c-18.2,9.4-30.3,5.9-30.3,5.9c-12.7-9.2-19.5-24.1-22.9-34.4c6.3-0.6,12.9,1.9,19.3,2.7
			c0.9,0.1,1.8,0.2,2.7,0.2c2.1,0.1,4.3,0,6.4-0.3c5.7-0.7,11.3-2.6,16.7-4.7C205.7,231.2,208.3,230,211,229z"/>
		<path fill="#B2B2B2" d="M191.1,259.9c-1.6-2.3-3.2-4.6-4.6-7.1c-1.4-2.5-2.6-5.1-3.8-7.7c-1.1-2.6-2-5.2-2.8-7.9
			c2.1,0.1,4.3,0,6.4-0.3c0.1,2.3,0.3,4.7,0.6,7c0.4,2.7,0.9,5.4,1.6,8.1C189.2,254.7,190.1,257.3,191.1,259.9z"/>
		
			<ellipse transform="matrix(0.7071 -0.7071 0.7071 0.7071 32.8908 230.0381)" fill="#0BFDFB" cx="294.1" cy="75.3" rx="43.8" ry="43.8"/>
		<circle fill="#0A111C" cx="283" cy="69.5" r="21.3"/>
		
			<ellipse transform="matrix(0.7071 -0.7071 0.7071 0.7071 -25.4381 123.8112)" fill="#0BFDFB" cx="136.7" cy="92.6" rx="43.8" ry="43.8"/>
		<circle fill="#0A111C" cx="125.6" cy="86.8" r="21.3"/>
	</g>
</g>
</svg>
