<svg xmlns="http://www.w3.org/2000/svg" viewBox="0 0 500 500">
<ellipse fill="#D8D8D8" cx="254" cy="481.2" rx="85.5" ry="6.8"/>
<path fill="#153315" d="M258.1,231.3s-19.3-124.8,67.4-148.5c86.7-23.7,88.4-72.4,88.4-72.4s38.1,96.7-31.6,143.5c-54.5,36.6-106.6-47.4-113.6,84.8l-10.6-7.4Z"/>
<path fill="#153315" d="M223.8,231.3s19.3-124.8-67.4-148.5C69.7,59.1,68,10.5,68,10.5s-38.1,96.7,31.6,143.5c54.5,36.6,106.6-47.4,113.6,84.8l10.6-7.4Z"/>
<path fill="#2A532A" d="M216.3,423.2s2.7,23.6,17.6,40.2c14.9,16.7-41.9-7.2-46.2,9-4.2,15.9,63.3,8,64.6-2.1,1.3-10.1-23.7-17.1-13.5-52.4,10-35.1-22.5,5.6-22.5,5.6Z"/>
<path fill="#2A532A" d="M292.3,423.2s-2.7,23.6-17.6,40.2c-14.9,16.7,41.9-7.2,46.2,9,4.2,15.9-63.3,8-64.6-2.1-1.3-10.1,23.7-17.1,13.5-52.4-10-35.1,22.6,5.6,22.6,5.6Z"/>
<path fill="#2A532A" d="M316.4,331s56-3.9,73.1-50.1c21.6-58.5,70.9,15.4,18.6,53.4-39.5,28.7-90.7,20.1-90.7,20.1"/>
<path fill="#2A532A" d="M396.6,274.3s-19.7-15.6-13-23.5c6.7-7.9,14.5,21.6,14.5,21.6l-1.5,1.9Z"/>
<path fill="#2A532A" d="M411.3,265.9s-9-23.5.8-26.9c9.8-3.4,1.5,26,1.5,26l-2.3.9Z"/>
<path fill="#2A532A" d="M423.1,274.2s6.9-24.2,16.8-21c9.8,3.1-14.4,21.6-14.4,21.6l-2.4-.6Z"/>
<path fill="#2A532A" d="M425.8,285.1s21-13.8,26.4-5c5.4,8.8-25.1,7-25.1,7l-1.3-2Z"/>
<path fill="#2A532A" d="M191.8,323.2s-56-3.9-73.1-50.1c-21.6-58.5-70.9,15.4-18.6,53.4,39.5,28.7,90.7,20.1,90.7,20.1"/>
<path fill="#2A532A" d="M111.6,266.5s19.7-15.6,13-23.5c-6.7-7.9-14.5,21.6-14.5,21.6l1.5,1.9Z"/>
<path fill="#2A532A" d="M96.9,258.2s9-23.5-.8-26.9c-9.8-3.4-1.5,26-1.5,26l2.3.9Z"/>
<path fill="#2A532A" d="M85.1,266.4s-6.9-24.2-16.8-21c-9.8,3.1,14.4,21.6,14.4,21.6l2.4-.6Z"/>
<path fill="#2A532A" d="M82.4,277.4s-21-13.8-26.4-5c-5.4,8.8,25.1,7,25.1,7l1.3-2Z"/>
<path fill="#39B549" d="M396.9,185.1c-8.2-43.2-41.5-92.6-89.8-99.9-19.1-2.9-43.9-.6-53.2,2.8-9.3-3.4-34.1-5.7-53.2-2.8-48.3,7.2-81.6,56.7-89.8,99.9-4.7,24.5-1,46.1,3.4,61.3,6.4-6.2,12.9-12.3,19.3-18.5-.7.9-13.1,16.4-6.7,35.3,5.6,16.4,20.8,22,22.7,22.7,1.6-6.6,3.2-13.2,4.8-19.9-.6,3.6-3.9,24.1,9.5,39.7,4.4,5.2,9.5,8.4,13.4,10.4.2-5.3.4-10.6.6-15.9,5.7,2.3,12.5,6.2,13.7,12.3,1.9,9.5-10.6,18.1-15.9,24.6-10.2,12.5-12.5,39.2,19.6,100.7,6.2-3.8,12.5-7.6,18.7-11.5.7,3.1,1.7,4.7,3.1,5,2.6.6,6.5-4.2,11.5-14.3,7.2,5,18.3,12.1,25.5,17.1,7.2-5,18.3-12.1,25.5-17.1,5,10.1,8.8,14.9,11.5,14.3,1.3-.3,2.4-2,3.1-5,6.2,3.8,12.5,7.6,18.7,11.5,32-61.5,29.8-88.3,19.6-100.7-5.4-6.5-17.9-15.2-15.9-24.6,1.3-6.1,8-10,13.7-12.3.2,5.3.4,10.6.6,15.9,4-2,9-5.2,13.4-10.4,13.4-15.7,10.1-36.1,9.5-39.7,1.6,6.6,3.2,13.2,4.8,19.9,1.9-.7,17.1-6.3,22.7-22.7,6.4-18.9-6-34.4-6.7-35.3,6.4,6.2,12.9,12.3,19.3,18.5,4.4-15.2,8.1-36.7,3.4-61.2Z"/>
<ellipse fill="#FFF" cx="295.8" cy="154.9" rx="37.4" ry="52.9"/>
<ellipse fill="#2E3648" cx="295.8" cy="141.5" rx="19.2" ry="24"/>
<ellipse fill="#FFF" cx="217.7" cy="180.4" rx="31" ry="44"/>
<ellipse fill="#2E3648" cx="217.7" cy="169.2" rx="15.9" ry="20"/>
<path fill="#7E264D" d="M325.3,252v.6c0,10.9-5.3,21-14,28.7-10.9,9.7-27.2,15.8-45.4,15.8-18.2,0-34.5-6.1-45.4-15.8-8.7-7.8-14-17.8-14-28.7V252c.2-11.5,11.6-18.7,22-15.1.9.3,1.7.7,2.6,1.1,9.8,5.3,21.8,8.4,34.9,8.4,13,0,25.1-3.1,34.9-8.4.9-.5,1.7-.8,2.6-1.1,10.2-3.6,21.6,3.7,21.8,15.2Z"/>
<path fill="#D3165C" d="M311.3,281.4c-10.9,9.7-27.2,15.8-45.4,15.8-18.2,0-34.5-6.1-45.4-15.8,10.9-9.7,27.2-15.8,45.4-15.8,18.2,0,34.4,6.1,45.4,15.8Z"/>
<path fill="#FFF" d="M304.3,246.1c0,9.5-2.8,17.2-6.2,17.2-3.2,0-5.7-6.6-6.1-15-5.3,3.3-15,5.6-26.1,5.6s-20.9-2.2-26.1-5.6c-.4,8.5-3,15-6.1,15-3.4,0-6.2-7.7-6.2-17.2,0-3.4.3-6.5,1-9.2.9.3,1.7.7,2.6,1.1,9.8,5.3,21.8,8.4,34.9,8.4,13,0,25.1-3.1,34.9-8.4.9-.5,1.7-.8,2.6-1.1.7,2.7,1,5.8,1,9.2Z"/>
</svg>