<svg xmlns="http://www.w3.org/2000/svg" viewBox="0 0 500 500">
<ellipse fill="#D8D8D8" cx="280.7" cy="468.6" rx="109.4" ry="8.7"/>
<path fill="#0F064B" d="M369.2,93.8s19.5,23.4,39.1,6.1c19.5-17.2,19.9-45.2,53.2-39.8,0,0-23,6.1-12.6,50.6,10.3,44.4-82.7,47.1-90.8,17.6-8-29.5,11.1-34.5,11.1-34.5Z"/>
<path fill="#0F064B" d="M191.6,93.8s-19.5,23.4-39.1,6.1C133,82.7,132.6,54.7,99.3,60.1c0,0,23,6.1,12.6,50.6-10.3,44.4,82.7,47.1,90.8,17.6,8-29.5-11.1-34.5-11.1-34.5Z"/>
<path fill="#0F064B" d="M321.9,397.2s10.7,23.8,6.1,47.9c-4.6,24.1,35.4-30.5,48.7-17.6,13,12.6-55.2,43.3-62.1,34.5-6.9-8.8,12.6-29.5-16.9-57.1-29.4-27.6,24.2-7.7,24.2-7.7Z"/>
<path fill="#0F064B" d="M222.7,404.5s3,25.9,19.4,44.2c16.3,18.3-46.1-7.9-50.8,9.9-4.7,17.5,69.6,8.8,71-2.3,1.4-11.1-26-18.8-14.9-57.6,11-38.8-24.7,5.9-24.7,5.9Z"/>
<path fill="#0F064B" d="M149,248.7s-50.8,7-74.6-31.1c-30.2-48.2-60.4,27-6.7,51.2,40.7,18.3,84.8,1,84.8,1"/>
<path fill="#0F064B" d="M66.7,213s14.7-17.6,7.3-23.4c-7.4-5.8-8.9,22-8.9,22l1.6,1.4Z"/>
<path fill="#0F064B" d="M52.1,208.2s3.6-22.7-5.7-23.9c-9.3-1.2,3.5,23.5,3.5,23.5l2.2.4Z"/>
<path fill="#0F064B" d="M43.1,217.8s-10.7-20.3-18.9-15.7c-8.2,4.6,16.9,16.6,16.9,16.6l2-1.1Z"/>
<path fill="#0F064B" d="M42.7,228.1s-21.4-8.4-24.5.5,23.7,1.5,23.7,1.5l.8-2.1Z"/>
<path fill="#292984" d="M45.3,234c-3.3-5-.5-12.6,6.1-17,6.7-4.3,14.7-3.7,18,1.3,3.3,5-.9,20.7-4.1,25.7Z"/>
<path fill="#0F064B" d="M390.1,251.8s40.8,31,30.7,74.8c-12.8,55.5,61.8,23.6,40.9-31.5-15.8-41.7-59.2-60.7-59.2-60.7"/>
<path fill="#0F064B" d="M423,335.2s-22.9,2.1-21.7,11.4c1.1,9.4,21.9-9.3,21.9-9.3l-.2-2.1Z"/>
<path fill="#0F064B" d="M430,348.9s-18.6,13.5-12.8,20.9c5.8,7.5,14.1-19.1,14.1-19.1l-1.3-1.8Z"/>
<path fill="#0F064B" d="M443.1,348.5s-6.8,21.9,2.3,24.4c9.1,2.5-.2-23.8-.2-23.8l-2.1-.6Z"/>
<path fill="#0F064B" d="M450.7,341.5s9.2,21,17.7,17c8.5-4-15.7-17.8-15.7-17.8l-2,.8Z"/>
<path fill="#FBB03C" d="M277.7,79.6c4.7,2.2,46.1-7.9,55.8,6.3s31.9-1.2,45,18.7c13.1,19.9,8.5,61.5,21.1,109.6,12.6,48.1,8.1,71.5,8.1,71.5s-13.2,1.4-14.7-7.2c0,0-4.5,7,6.2,41.8,10.7,34.8-21.2,47.3,6.6,79.8,0,0-17.5,23.3-36.6,15.7-19.1-7.6-28.5-5.2-37.8,7.1-9.3,12.2-24.6-11.5-32.6-10.9-8,.6-8.8,17.4-22,13.1-13.2-4.3-6.7-22.7-26.1-20.1-19.5,2.6-23.3,22.2-31.6,17.4-8.3-4.9-.6-30.1-14-29.2-13.4.8-40,11.8-46.2,6.3-6.2-5.4,7.7-13.7,4.1-16.8-3.6-3.1-36.1,2.1-35.5-10.4.6-12.5,25.5-12.6,17.6-38.4-6.1-19.9-14.3-42.8-4-72.2,10.4-29.3-10.5-54.3,5.5-77.5,0,0-13.1,3.4-20.3,3.8,0,0,22.3-19.5,26-32.5,3.7-13.1,46.6-112.8,125.3-76.2Z"/>
<ellipse transform="rotate(-17.9 313.6 185.5)" fill="#FFF" cx="313.6" cy="185.5" rx="29.7" ry="29.7"/>
<ellipse transform="rotate(-57.4 306.9 185.2)" fill="#0F064B" cx="306.9" cy="185.2" rx="16.5" ry="16.5"/>
<ellipse transform="rotate(-14.7 222.9 177.2)" fill="#FFF" cx="222.9" cy="177.2" rx="29.7" ry="29.7"/>
<ellipse transform="rotate(-39.8 229.5 178.2)" fill="#0F064B" cx="229.5" cy="178.2" rx="16.5" ry="16.5"/>
<path fill="#FDFFFF" d="M198.5,252.1c-3.6,1.7-5.2,5.9-3.5,9.5l5.2,11.2,13-6-5.2-11.2c-1.6-3.6-5.9-5.1-9.5-3.5Z"/>
<path fill="#FDFFFF" d="M241,234.5c-3.9.6-6.6,4.3-6,8.2l1.9,12.3,14.2-2.2-1.9-12.2c-.6-4-4.3-6.7-8.2-6.1Z"/>
<path fill="#FDFFFF" d="M286.7,233c-4-.4-7.4,2.6-7.8,6.5l-1.1,12.3,14.3,1.3,1.1-12.3c.4-3.9-2.5-7.4-6.5-7.8Z"/>
<path fill="#FDFFFF" d="M326.2,242.2c-3.7-1.4-7.9.5-9.2,4.3l-4.3,11.6,13.5,5,4.3-11.6c1.3-3.8-.6-7.9-4.3-9.3Z"/>
<path fill="#DD6613" d="M189.4,282.7c4.1-5.4,9.1-10.1,14.5-14.4,5.4-4.2,11.1-8.1,17.2-11.3,12.2-6.5,25.8-10.7,39.7-12,1.7-.1,3.5-.3,5.2-.4l5.2-.1c1.7,0,3.5.1,5.2.2l2.6.1,2.6.3c6.9.7,13.7,2.3,20.3,4.4,13.1,4.3,25.4,10.9,35.9,19.5-12.4-5.4-24.9-10-37.7-12.8-6.4-1.3-12.8-2.4-19.3-2.7-6.4-.4-12.9-.4-19.3.3-12.8,1.2-25.5,4.5-37.6,9.5-6,2.5-12,5.4-17.7,8.7-5.9,3-11.5,6.7-16.9,10.7Z"/>
<path fill="#F7941F" d="M287.7,89.1s.1-29.2-16.1-38.5c-16.2-9.3,6.6,29.8,16.1,38.5Z"/>
<path fill="#F7941F" d="M285.8,86.3s7.6-42.1,33.4-51.2c25.8-9.1-17.3,41.2-33.4,51.2Z"/>
</svg>