<?xml version="1.0" encoding="utf-8"?>
<svg xmlns="http://www.w3.org/2000/svg" viewBox="0 0 500 500">
<g>
	<ellipse fill="#D8D8D8" cx="331.5" cy="478.9" rx="134" ry="8.8"/>
	<g>
		<path fill="#D31B60" d="M43.2,382.6c0,0-10.1,18.3-18.3,22.7c-8.2,4.4-13.7-62.9-6-69c7.7-6,66.1,19.5,60.7,30.7
			c-3.4,7-22.7,7.4-22.7,7.4L43.2,382.6z"/>
		<g>
			<path fill="#7E0230" d="M213.7,369.2c0,0-27.4-6.6-38-1.4c-10.7,5.2,29.6,42.7,29.6,42.7l15.9-24.6L213.7,369.2z"/>
			<path fill="#7E0230" d="M195.5,419.9c0,0-25.6-14-32.5-9.4c-6.8,4.7,7.4,32,7.4,32L195.5,419.9z"/>
			<path fill="#7E0230" d="M151,448.3c0,0-7.2-28.4-17.3-30.3c-10.1-1.9-19.4,27.3-19.4,27.3L151,448.3z"/>
			<path fill="#7E0230" d="M98.7,437.2c0,0,10.6-22.2,5.1-28.8c-5.5-6.7-27.1,7.2-27.1,7.2L98.7,437.2z"/>
			<path fill="#7E0230" d="M68.7,413.1c0,0,13.2-17.6,9.6-24.5c-3.7-6.8-25.2,1.6-25.2,1.6L68.7,413.1z"/>
		</g>
		<path fill="#BC0F56" d="M209.6,352c0,0,2.7,65.1-49.3,85.4c-52,20.2-103.4-62.9-103.4-62.9l-10.6-0.7l-3.1,8.9
			c0,0,38.7,84,98.5,98.5c60.7,14.8,136.9-53.6,156.6-127l-39.4-32.8L209.6,352z"/>
		<g>
			<path fill="#7E0230" d="M341.9,62.8c0,0,63.8-16.1,57.5-62.7c0,0,32.4,79.2-41.5,107.7C357.9,107.8,325,87.4,341.9,62.8z"/>
			<path fill="#7E0230" d="M407.4,390.3c0,0,2.3,44.9-3.1,78.9c0,0,37.2-23.2,43.3,9.7h-50.7c0,0-3.1-57.3-7.4-66.2
				C385.3,403.8,407.4,390.3,407.4,390.3z"/>
			<path fill="#7E0230" d="M309.9,390.3c0,0,2.3,44.9-3.1,78.9c0,0,37.2-23.2,43.3,9.7h-50.7c0,0-3.1-57.3-7.4-66.2
				C287.8,403.8,309.9,390.3,309.9,390.3z"/>
			
				<ellipse transform="matrix(0.5813 -0.8137 0.8137 0.5813 2.3137 229.0933)" fill="#7E0230" cx="223.8" cy="112.3" rx="25.5" ry="37.8"/>
			
				<ellipse transform="matrix(0.2503 -0.9682 0.9682 0.2503 -10.143 320.4205)" fill="#7E0230" cx="201.8" cy="166.8" rx="25.5" ry="30.1"/>
			<ellipse fill="#7E0230" cx="193.9" cy="230.7" rx="27.1" ry="25.5"/>
			<ellipse fill="#7E0230" cx="190.2" cy="299.6" rx="20.3" ry="19.2"/>
			
				<ellipse transform="matrix(0.7071 -0.7071 0.7071 0.7071 -187.1709 241.2319)" fill="#7E0230" cx="197.6" cy="346.5" rx="14.3" ry="13.5"/>
			<g>
				<path fill="#7E0230" d="M437.9,161.5c2.2,11.7,0.2,21.9-4.4,22.8c-4.7,0.9-10.3-7.9-12.5-19.5c-2.2-11.7-0.2-21.9,4.4-22.8
					C430,141,435.6,149.8,437.9,161.5z"/>
				
					<ellipse transform="matrix(0.9478 -0.319 0.319 0.9478 -39.4271 127.3081)" fill="#7E0230" cx="369" cy="184" rx="8.6" ry="21.5"/>
				<g>
					<ellipse fill="#7E0230" cx="466.9" cy="245.5" rx="5.9" ry="14.7"/>
					<ellipse fill="#7E0230" cx="438" cy="252" rx="5.9" ry="14.7"/>
					<ellipse fill="#7E0230" cx="409.2" cy="252.2" rx="5.9" ry="14.7"/>
					<ellipse fill="#7E0230" cx="380.3" cy="249.7" rx="5.9" ry="14.7"/>
					<ellipse fill="#7E0230" cx="351.4" cy="237.4" rx="5.9" ry="14.7"/>
				</g>
			</g>
			<path fill="#D31B60" d="M478.5,339.7c0-7.7-3.1-16.9-3.1-16.9c-4.4,17.8-12.3,23.2-16.1,47.2c-3.9,24-15.5,22.5-15.5,22.5
				c1.2-10.1-4.3-11.2-4.3-11.2c-10.7,27-36,35.6-36,35.6c2.7-8.5,0-9.3,0-9.3c-27.5,23.2-44.1,22.8-44.1,22.8l-10.8-7.3l-3.8,7.3
				c-14.6-0.4-46.6-16.6-46.6-16.6l3.9,8.9c-16.6-1.9-51.9-27.1-51.9-27.1l-2.7,10.4c-24-13.9-35.2-48.4-35.2-48.4
				c-1.2,14.7-6.2,12.4-6.2,12.4c0.4-15.5-11.6-27.1-16.2-47.6c-4.5-20,1.3-49.3,1.5-50.6c-2.4,7.7-13.5,6.9-13.5,6.9
				c-1.2-12,13.9-20.5,15.1-63.9c1.2-43.3,26.7-77.4,26.7-77.4c-9.7,6.5-19.9,5.7-19.9,5.7C243.2,44,337.6,56.2,337.6,56.2l-35.6,74
				c0,0,25,24.5,50.7,50.2c-9.7,0.5-20,0.2-30.8-1.2c0,0-9.6,113.2,153.5,70.2C488.2,279.8,478.5,339.7,478.5,339.7z"/>
			<path fill="#D31B60" d="M475.4,252.3c0,108.3-61.7,163.2-137.8,163.2c-76.1,0-137.8-54.9-137.8-163.2S261.5,56.2,337.6,56.2
				c47.3,0,89,33.9,113.8,85.6c-20.3,16.8-53.5,36.4-98.7,38.6c-9.7,0.5-20,0.2-30.8-1.2c0,0-9.6,113.2,153.5,70.2
				C475.4,250.3,475.4,251.3,475.4,252.3z"/>
			<circle fill="#FFFFFF" cx="395.5" cy="119.6" r="22.7"/>
			
				<ellipse transform="matrix(0.2298 -0.9732 0.9732 0.2298 193.656 488.1115)" fill="#212B26" cx="405.2" cy="121.7" rx="10.3" ry="10.3"/>
			
				<ellipse transform="matrix(0.2898 -0.9571 0.9571 0.2898 117.3345 420.1131)" fill="#FFFFFF" cx="341.7" cy="131" rx="22.7" ry="22.7"/>
			
				<ellipse transform="matrix(0.2298 -0.9732 0.9732 0.2298 141.1124 444.5522)" fill="#212B26" cx="351.4" cy="133.1" rx="10.3" ry="10.3"/>
			<path fill="#7E0230" d="M264.5,231.6c0,0-3.5,83.4,19.9,92.8c23.5,9.4,29.9,3.8,31.1,12.3c1.2,8.5-11.7,5-11.7,5
				s2.1,12,19.7,10.9c17.6-1.2-2,54.2-50.2,15c-42.8-34.9-31.4-131.1-31.4-131.1S247.8,219.7,264.5,231.6z"/>
			<path fill="#7E0230" d="M294,64.6c0,0-65.8,2.3-72.8-44.1c0,0-9,85.1,69.9,91.8C291.2,112.3,317,83.5,294,64.6z"/>
		</g>
	</g>
</g>
</svg>
