<svg xmlns="http://www.w3.org/2000/svg" viewBox="0 0 500 450">
<g>
	<ellipse fill="#D8D8D8" cx="242.3" cy="429.9" rx="108.5" ry="8.2"/>
	<g>
		<path fill="#0E0548" d="M293.7,347.1c0,0,2.2,41.9-2.9,73.8c0,0,34.7-21.7,40.5,9h-47.4c0,0-2.9-53.5-6.9-61.8
			C273.1,359.7,293.7,347.1,293.7,347.1z"/>
		<path fill="#0E0548" d="M190.1,347.1c0,0-2.2,41.9,2.9,73.8c0,0-34.7-21.7-40.5,9h47.4c0,0,2.9-53.5,6.9-61.8
			C210.7,359.7,190.1,347.1,190.1,347.1z"/>
		<g>
			<path fill="#4F250E" d="M458,253.1c0,0-42.9-15.4-50.1,12.5c0,0-18.3-21.7-45.8-9.6l-12.1-8.2l4.7-15.3l1.5-4.9
				c0,0,54.5,5.8,103.2-69.9c0,0,1.5,37.6,37.6,50.1C497,207.8,456.5,208.3,458,253.1z"/>
			<path fill="#381807" d="M497,207.8c0,0-28.7-6.3-40.2-39.5c0,0-38.3,64.2-102.1,64.2l1.5-4.9c0,0,54.5,5.8,103.2-69.9
				C459.4,157.7,460.8,195.3,497,207.8z"/>
			<polygon fill="#381807" points="428.9,200.4 458,253.1 422.8,204.2 			"/>
			<polygon fill="#381807" points="401.2,218.6 407.8,265.7 394.2,220.1 			"/>
		</g>
		<g>
			<path fill="#4F250E" d="M42.4,253.1c0,0,42.9-15.4,50.1,12.5c0,0,18.3-21.7,45.8-9.6l12.1-8.2l-4.7-15.3l-1.5-4.9
				c0,0-54.5,5.8-103.2-69.9c0,0-1.5,37.6-37.6,50.1C3.4,207.8,43.9,208.3,42.4,253.1z"/>
			<path fill="#381807" d="M3.4,207.8c0,0,28.7-6.3,40.2-39.5c0,0,38.3,64.2,102.1,64.2l-1.5-4.9c0,0-54.5,5.8-103.2-69.9
				C41,157.7,39.6,195.3,3.4,207.8z"/>
			<polygon fill="#381807" points="71.5,200.4 42.4,253.1 77.6,204.2 			"/>
			<polygon fill="#381807" points="99.2,218.6 92.6,265.7 106.2,220.1 			"/>
		</g>
		<g>
			<path fill="#0F064B" d="M326.6,11.5c0,0,51.3,7.3,51.5,59.2c0.1,45-50.5,72.6-50.5,72.6l-29.4-37.6
				C298.1,105.7,379.6,67.5,326.6,11.5z"/>
			<path fill="#0F064B" d="M170.8,11.5c0,0-51.3,7.3-51.5,59.2c-0.1,45,50.5,72.6,50.5,72.6l29.4-37.6
				C199.3,105.7,117.7,67.5,170.8,11.5z"/>
		</g>
		<path fill="#5F4273" d="M376.3,293.1c0,126.7-254.9,126.7-254.9,0S178.5,63.6,248.8,63.6S376.3,166.3,376.3,293.1z"/>
		<path fill="#6E5284" d="M317.2,347.9c0,49.4-136.7,49.4-136.7,0c0-49.4,30.6-89.4,68.3-89.4C286.6,258.6,317.2,298.6,317.2,347.9z
			"/>
		<g>
			<path fill="#FFFFFF" d="M270.1,162c0,11.7-9.5,21.2-21.2,21.2c-11.7,0-21.2-9.5-21.2-21.2c0-0.1,0-0.3,0-0.4
				c0.2-11.5,9.6-20.8,21.2-20.8c11.6,0,21,9.3,21.2,20.8C270.1,161.7,270.1,161.8,270.1,162z"/>
		</g>
		<circle fill="#FFFFFF" cx="301.3" cy="145.2" r="21.2"/>
		
			<ellipse transform="matrix(0.7071 -0.7071 0.7071 0.7071 -15.7092 256.135)" fill="#212B26" cx="301.3" cy="147" rx="9.6" ry="9.6"/>
		
			<ellipse transform="matrix(0.2793 -0.9602 0.9602 0.2793 22.3163 357.5232)" fill="#212B26" cx="249.3" cy="163.9" rx="9.6" ry="9.6"/>
		<g>
			<circle fill="#FFFFFF" cx="196.5" cy="145.2" r="21.2"/>
		</g>
		
			<ellipse transform="matrix(0.7071 -0.7071 0.7071 0.7071 -46.8827 182.1857)" fill="#212B26" cx="196.5" cy="147.7" rx="9.6" ry="9.6"/>
		<g>
			<path fill="#FFFFFF" d="M260.9,235.7v17.4h-25.5V235c5,0.8,10.3,1.2,15.7,1.2C254.4,236.2,257.6,236.1,260.9,235.7z"/>
			<path fill="#361F4C" d="M310.5,209.7c-2.3,5.2-6.2,9.7-10.7,13.4c-4.5,3.6-9.6,6.6-14.9,8.8c-10.7,4.5-22.3,6.5-33.9,6.5
				c-11.6,0-23.2-2-33.9-6.5c-5.3-2.2-10.4-5.2-14.9-8.8c-2.2-1.9-4.3-3.9-6.1-6.1c-1.8-2.3-3.3-4.7-4.5-7.3
				c1.6,2.4,3.4,4.5,5.4,6.5c2,1.9,4.2,3.7,6.5,5.2c4.6,3.1,9.7,5.5,14.9,7.4c5.2,1.8,10.6,3.2,16.1,4c5.5,0.9,11,1.3,16.6,1.3
				c5.5,0.1,11.1-0.4,16.6-1.3c5.5-0.8,10.9-2.2,16.1-4c5.2-1.9,10.3-4.3,14.9-7.4C303.2,218.3,307.3,214.4,310.5,209.7z"/>
		</g>
		<path fill="#361F4C" d="M270.1,161.6h-42.3c0.2-11.5,9.6-20.8,21.2-20.8C260.5,140.8,269.9,150.1,270.1,161.6z"/>
		<path fill="#361F4C" d="M217.7,145.2h-42.4c0-11.7,9.5-21.2,21.2-21.2C208.2,124,217.7,133.5,217.7,145.2z"/>
		<path fill="#361F4C" d="M322.5,145.2h-42.4c0-11.7,9.5-21.2,21.2-21.2C313,124,322.5,133.5,322.5,145.2z"/>
	</g>
</g>
</svg>
