<?xml version="1.0" encoding="utf-8"?>
<!-- Generator: Adobe Illustrator 27.3.1, SVG Export Plug-In . SVG Version: 6.00 Build 0)  -->
<svg version="1.2" baseProfile="tiny" id="Layer_1" xmlns="http://www.w3.org/2000/svg" xmlns:xlink="http://www.w3.org/1999/xlink"
	 x="0px" y="0px" viewBox="0 0 500 500" overflow="visible" xml:space="preserve">
<g>
	<ellipse fill="#D8D8D8" cx="254" cy="481.2" rx="85.5" ry="6.8"/>
	<g>
		<path fill="#153315" d="M258.1,231.3c0,0-19.3-124.8,67.4-148.5c86.7-23.7,88.4-72.4,88.4-72.4s38.1,96.7-31.6,143.5
			c-54.5,36.6-106.6-47.4-113.6,84.8L258.1,231.3z"/>
		<path fill="#153315" d="M223.8,231.3c0,0,19.3-124.8-67.4-148.5C69.7,59.1,68,10.5,68,10.5s-38.1,96.7,31.6,143.5
			c54.5,36.6,106.6-47.4,113.6,84.8L223.8,231.3z"/>
		<path fill="#2A532A" d="M216.3,423.2c0,0,2.7,23.6,17.6,40.2c14.9,16.7-41.9-7.2-46.2,9c-4.2,15.9,63.3,8,64.6-2.1
			c1.3-10.1-23.7-17.1-13.5-52.4C248.8,382.5,216.3,423.2,216.3,423.2z"/>
		<path fill="#2A532A" d="M292.3,423.2c0,0-2.7,23.6-17.6,40.2c-14.9,16.7,41.9-7.2,46.2,9c4.2,15.9-63.3,8-64.6-2.1
			c-1.3-10.1,23.7-17.1,13.5-52.4C259.7,382.5,292.3,423.2,292.3,423.2z"/>
		<g>
			<path fill="#2A532A" d="M316.4,331c0,0,56-3.9,73.1-50.1c21.6-58.5,70.9,15.4,18.6,53.4c-39.5,28.7-90.7,20.1-90.7,20.1"/>
			<path fill="#2A532A" d="M396.6,274.3c0,0-19.7-15.6-13-23.5c6.7-7.9,14.5,21.6,14.5,21.6L396.6,274.3z"/>
			<path fill="#2A532A" d="M411.3,265.9c0,0-9-23.5,0.8-26.9c9.8-3.4,1.5,26,1.5,26L411.3,265.9z"/>
			<path fill="#2A532A" d="M423.1,274.2c0,0,6.9-24.2,16.8-21c9.8,3.1-14.4,21.6-14.4,21.6L423.1,274.2z"/>
			<path fill="#2A532A" d="M425.8,285.1c0,0,21-13.8,26.4-5c5.4,8.8-25.1,7-25.1,7L425.8,285.1z"/>
		</g>
		<g>
			<path fill="#2A532A" d="M191.8,323.2c0,0-56-3.9-73.1-50.1c-21.6-58.5-70.9,15.4-18.6,53.4c39.5,28.7,90.7,20.1,90.7,20.1"/>
			<path fill="#2A532A" d="M111.6,266.5c0,0,19.7-15.6,13-23.5c-6.7-7.9-14.5,21.6-14.5,21.6L111.6,266.5z"/>
			<path fill="#2A532A" d="M96.9,258.2c0,0,9-23.5-0.8-26.9c-9.8-3.4-1.5,26-1.5,26L96.9,258.2z"/>
			<path fill="#2A532A" d="M85.1,266.4c0,0-6.9-24.2-16.8-21c-9.8,3.1,14.4,21.6,14.4,21.6L85.1,266.4z"/>
			<path fill="#2A532A" d="M82.4,277.4c0,0-21-13.8-26.4-5c-5.4,8.8,25.1,7,25.1,7L82.4,277.4z"/>
		</g>
		<path fill="#39B549" d="M396.9,185.1c-8.2-43.2-41.5-92.6-89.8-99.9c-19.1-2.9-43.9-0.6-53.2,2.8c-9.3-3.4-34.1-5.7-53.2-2.8
			c-48.3,7.2-81.6,56.7-89.8,99.9c-4.7,24.5-1,46.1,3.4,61.3c6.4-6.2,12.9-12.3,19.3-18.5c-0.7,0.9-13.1,16.4-6.7,35.3
			c5.6,16.4,20.8,22,22.7,22.7c1.6-6.6,3.2-13.2,4.8-19.9c-0.6,3.6-3.9,24.1,9.5,39.7c4.4,5.2,9.5,8.4,13.4,10.4
			c0.2-5.3,0.4-10.6,0.6-15.9c5.7,2.3,12.5,6.2,13.7,12.3c1.9,9.5-10.6,18.1-15.9,24.6c-10.2,12.5-12.5,39.2,19.6,100.7
			c6.2-3.8,12.5-7.6,18.7-11.5c0.7,3.1,1.7,4.7,3.1,5c2.6,0.6,6.5-4.2,11.5-14.3c7.2,5,18.3,12.1,25.5,17.1
			c7.2-5,18.3-12.1,25.5-17.1c5,10.1,8.8,14.9,11.5,14.3c1.3-0.3,2.4-2,3.1-5c6.2,3.8,12.5,7.6,18.7,11.5
			c32-61.5,29.8-88.3,19.6-100.7c-5.4-6.5-17.9-15.2-15.9-24.6c1.3-6.1,8-10,13.7-12.3c0.2,5.3,0.4,10.6,0.6,15.9
			c4-2,9-5.2,13.4-10.4c13.4-15.7,10.1-36.1,9.5-39.7c1.6,6.6,3.2,13.2,4.8,19.9c1.9-0.7,17.1-6.3,22.7-22.7
			c6.4-18.9-6-34.4-6.7-35.3c6.4,6.2,12.9,12.3,19.3,18.5C398,231.2,401.6,209.7,396.9,185.1z"/>
		<ellipse fill="#FFFFFF" cx="295.8" cy="154.9" rx="37.4" ry="52.9"/>
		<ellipse fill="#2E3648" cx="295.8" cy="141.5" rx="19.2" ry="24"/>
		<ellipse fill="#FFFFFF" cx="217.7" cy="180.4" rx="31" ry="44"/>
		<ellipse fill="#2E3648" cx="217.7" cy="169.2" rx="15.9" ry="20"/>
		<path fill="#7E264D" d="M325.3,252v0.6c0,10.9-5.3,21-14,28.7c-10.9,9.7-27.2,15.8-45.4,15.8c-18.2,0-34.5-6.1-45.4-15.8
			c-8.7-7.8-14-17.8-14-28.7V252c0.2-11.5,11.6-18.7,22-15.1c0.9,0.3,1.7,0.7,2.6,1.1c9.8,5.3,21.8,8.4,34.9,8.4
			c13,0,25.1-3.1,34.9-8.4c0.9-0.5,1.7-0.8,2.6-1.1C313.7,233.3,325.1,240.6,325.3,252z"/>
		<path fill="#D3165C" d="M311.3,281.4c-10.9,9.7-27.2,15.8-45.4,15.8c-18.2,0-34.5-6.1-45.4-15.8c10.9-9.7,27.2-15.8,45.4-15.8
			C284.1,265.6,300.4,271.7,311.3,281.4z"/>
		<path fill="#FFFFFF" d="M304.3,246.1c0,9.5-2.8,17.2-6.2,17.2c-3.2,0-5.7-6.6-6.1-15c-5.3,3.3-15,5.6-26.1,5.6s-20.9-2.2-26.1-5.6
			c-0.4,8.5-3,15-6.1,15c-3.4,0-6.2-7.7-6.2-17.2c0-3.4,0.3-6.5,1-9.2c0.9,0.3,1.7,0.7,2.6,1.1c9.8,5.3,21.8,8.4,34.9,8.4
			c13,0,25.1-3.1,34.9-8.4c0.9-0.5,1.7-0.8,2.6-1.1C303.9,239.6,304.3,242.7,304.3,246.1z"/>
	</g>
</g>
</svg>
