<?xml version="1.0" encoding="utf-8"?>
<!-- Generator: Adobe Illustrator 23.0.2, SVG Export Plug-In . SVG Version: 6.00 Build 0)  -->
<svg version="1.1" xmlns="http://www.w3.org/2000/svg" xmlns:xlink="http://www.w3.org/1999/xlink" x="0px" y="0px"
	 viewBox="0 0 1417.3 425.2" style="enable-background:new 0 0 1417.3 425.2;" xml:space="preserve">
<style type="text/css">
	.st0{fill:#2C2C2C;}
	.st1{fill:#66C2F4;}
	.st2{display:none;}
</style>
<g id="mewocont">
</g>
<g id="Névtelen-1_xA0_Kép_1_">
	<g>
		<g>
			<path class="st0" d="M305.9,266.9v-57.4c0-12.4-6.3-18.6-18.8-18.6h-17.5v76h-36.3v-76h-35.9v76h-36.8V157.6h127.4
				c18.1,0,31.7,4.5,40.7,13.6c9,9.1,13.6,21.9,13.6,38.5v57.1H305.9z"/>
			<path class="st0" d="M417.1,266.9c-8.5,0-16.3-1.3-23.4-3.9c-7.2-2.6-13.4-6.3-18.6-11.2c-5.3-4.8-9.3-10.6-12.3-17.3
				c-2.9-6.7-4.4-14.2-4.4-22.3c0-8,1.5-15.4,4.4-22.1c2.9-6.7,7-12.5,12.3-17.3c5.3-4.8,11.5-8.5,18.6-11.2
				c7.1-2.6,15-3.9,23.4-3.9h27.8c6.3,0,11.7,0.9,16.4,2.6c4.7,1.8,8.6,4.2,11.7,7.2c3.1,3.1,5.5,6.8,7,11.1c1.5,4.3,2.3,9,2.3,14.1
				c0,9.6-2.8,16.9-8.3,21.7c-5.5,4.8-14.7,7.2-27.4,7.2h-39v-19.9H439c5.7,0,8.5-2.6,8.5-7.7c0-5.4-2.8-8.1-8.3-8.1h-22.3
				c-6.6,0-11.9,2.3-16,6.8c-4.1,4.5-6.1,10.9-6.1,19.3c0,8.3,2,14.6,6.1,18.7c4.1,4.2,9.4,6.2,16,6.2h59.5v30H417.1z"/>
			<path class="st0" d="M623.7,266.9c-4.1,0-7.5-0.9-10.3-2.6c-2.8-1.8-4.7-4.5-5.9-8.1l-21.5-63.9L564,256.1
				c-2.3,7.2-7.7,10.7-16.2,10.7h-14.7c-4.2,0-7.8-0.9-10.6-2.8c-2.8-1.9-4.9-5.2-6-9.9l-25.4-96.5h34.8l17.3,70.1l20.6-59.3
				c2.3-7.1,7.7-10.7,16.2-10.7h11.8c8.3,0,13.6,3.6,15.8,10.7l21,60.6l16.9-71.4h35l-25.6,96.5c-1.2,4.7-3.1,8-5.9,9.9
				c-2.8,1.9-6.3,2.8-10.5,2.8H623.7z"/>
			<path class="st0" d="M747.8,266.9c-8.5,0-16.3-1.3-23.4-3.9c-7.2-2.6-13.4-6.3-18.6-11.2c-5.3-4.8-9.3-10.6-12.3-17.3
				c-2.9-6.7-4.4-14.2-4.4-22.3c0-8,1.5-15.4,4.4-22.1c2.9-6.7,7-12.5,12.3-17.3c5.3-4.8,11.5-8.5,18.6-11.2
				c7.1-2.6,15-3.9,23.4-3.9h15.3c8.5,0,16.3,1.3,23.4,3.9c7.1,2.6,13.4,6.3,18.6,11.2c5.3,4.8,9.3,10.6,12.3,17.3
				c2.9,6.7,4.4,14.1,4.4,22.1c0,8.2-1.5,15.6-4.4,22.3c-2.9,6.7-7,12.5-12.3,17.3c-5.3,4.8-11.5,8.5-18.6,11.2
				c-7.2,2.6-15,3.9-23.4,3.9H747.8z M763.2,233.6c6.4,0,11.7-2,15.9-5.9c4.2-3.9,6.2-9.1,6.2-15.5c0-6.4-2.1-11.6-6.2-15.4
				c-4.2-3.9-9.5-5.8-15.9-5.8h-15.5c-6.6,0-11.9,1.9-16,5.8c-4.1,3.9-6.1,9-6.1,15.4c0,6.4,2,11.6,6.1,15.5c4.1,3.9,9.4,5.9,16,5.9
				H763.2z"/>
			<path class="st0" d="M893.2,266.9c-8.5,0-16.3-1.3-23.4-3.9c-7.2-2.6-13.4-6.3-18.6-11.2c-5.3-4.8-9.3-10.6-12.3-17.3
				c-2.9-6.7-4.4-14.2-4.4-22.3c0-8,1.5-15.4,4.4-22.1c2.9-6.7,7-12.5,12.3-17.3c5.3-4.8,11.5-8.5,18.6-11.2
				c7.1-2.6,15-3.9,23.4-3.9h49.3v33.3H893c-6.6,0-11.9,1.9-16,5.8c-4.1,3.9-6.1,9-6.1,15.4c0,6.4,2,11.6,6.1,15.5
				c4.1,3.9,9.4,5.9,16,5.9h49.5v33.3H893.2z"/>
			<path class="st0" d="M1015.5,266.9c-8.5,0-16.3-1.3-23.4-3.9c-7.2-2.6-13.4-6.3-18.6-11.2c-5.3-4.8-9.3-10.6-12.3-17.3
				c-2.9-6.7-4.4-14.2-4.4-22.3c0-8,1.5-15.4,4.4-22.1c2.9-6.7,7-12.5,12.3-17.3c5.3-4.8,11.5-8.5,18.6-11.2
				c7.1-2.6,15-3.9,23.4-3.9h15.3c8.5,0,16.3,1.3,23.4,3.9c7.1,2.6,13.4,6.3,18.6,11.2c5.3,4.8,9.3,10.6,12.3,17.3
				c2.9,6.7,4.4,14.1,4.4,22.1c0,8.2-1.5,15.6-4.4,22.3c-2.9,6.7-7,12.5-12.3,17.3c-5.3,4.8-11.5,8.5-18.6,11.2
				c-7.2,2.6-15,3.9-23.4,3.9H1015.5z M1030.9,233.6c6.4,0,11.7-2,15.9-5.9c4.2-3.9,6.2-9.1,6.2-15.5c0-6.4-2.1-11.6-6.2-15.4
				c-4.2-3.9-9.5-5.8-15.9-5.8h-15.5c-6.6,0-11.9,1.9-16,5.8c-4.1,3.9-6.1,9-6.1,15.4c0,6.4,2,11.6,6.1,15.5c4.1,3.9,9.4,5.9,16,5.9
				H1030.9z"/>
			<path class="st0" d="M1198.5,266.9v-57.4c0-12.4-6.3-18.6-19-18.6h-36.6v76h-36.8V157.6h74.2c18.1,0,31.7,4.5,40.9,13.6
				c9.2,9.1,13.8,21.9,13.8,38.5v57.1H1198.5z"/>
			<path class="st0" d="M1293.8,266.9c-13.3,0-23.2-3.5-29.9-10.4c-6.6-6.9-10-16.8-10-29.7V126.5h36.3v31.1h43.8v30.2h-43.8V224
				c0,8.6,4.3,12.9,12.9,12.9h29.8v30H1293.8z"/>
		</g>
		<path class="st1" d="M125.4,212.6c0.1,3.5,0.2,7,0.5,10.5c0.7,8.5,2.1,16.8,4.5,25c2.5,8.4,5.9,16.5,10,24.2
			c3.9,7.3,8.5,14.2,13.8,20.6c3.9,4.7,8,9,12.5,13.1c7.2,6.7,15.2,12.4,23.8,17.2c7.6,4.2,15.6,7.7,23.9,10.4
			c6.1,2,12.4,3.3,18.7,4.3c8.5,1.3,17,1.5,25.5,1.2c5.7-0.2,11.3-0.9,16.9-1.9c12.2-2.2,23.7-6.4,34.7-12
			c7.4-3.8,14.4-8.2,20.8-13.4c5.2-4.2,10.1-8.6,14.5-13.6c1.1-1.2,2.3-2.2,4-2.4c2.2-0.3,4.2,0.2,5.6,2.1
			c6.2,8.4,12.3,16.9,18.5,25.4c1.5,2.1,2.9,4.2,4.5,6.2c1.7,2.2,1.7,5.9-0.5,8c-1.7,1.6-3.3,3.3-5,4.9c-4.7,4.3-9.6,8.4-14.7,12.2
			c-2.9,2.1-5.8,4.1-8.7,6.1c-7.1,5-14.7,9.1-22.6,12.7c-9.3,4.3-18.9,7.7-28.8,10.3c-5.8,1.5-11.6,2.8-17.5,3.8
			c-3.5,0.6-7.1,1-10.6,1.4c-4.5,0.5-9,0.6-13.5,0.9c-4.5,0.2-9,0-13.4-0.2c-10.4-0.6-20.6-2.1-30.7-4.5c-12.1-2.8-23.8-6.8-35.1-12
			c-6.7-3.1-13.3-6.6-19.4-10.7c-7.3-4.9-14.4-10-21.1-15.8c-8.4-7.3-16-15.2-22.9-24c-8.2-10.5-15.4-21.6-21.1-33.7
			c-5.6-11.7-9.8-23.9-12.6-36.6c-1-4.6-1.9-9.2-2.7-13.8c-0.5-3.3-0.8-6.6-1.2-9.9c-0.8-7.4-0.9-14.8-0.7-22.2
			c0.1-4.1,0.5-8.2,0.9-12.4c1.1-11.1,3.5-22,6.6-32.7c3.4-11.6,8.1-22.7,13.9-33.3c5.4-9.9,11.8-19.2,18.9-28
			c4.9-6.1,10.3-11.7,16-17c9.9-9.2,20.8-17.2,32.5-24c10.8-6.3,22.2-11.3,34.1-15c8.2-2.6,16.6-4.6,25.1-6
			c4.8-0.8,9.6-1.5,14.5-1.8c3.3-0.2,6.6-0.4,9.9-0.5c2-0.1,4-0.2,5.9-0.1c4.3,0.2,8.7,0.4,13,0.7c12.7,0.9,25,3.5,37.2,7.1
			c7.2,2.1,14.2,4.7,21,7.8c9.9,4.5,19.3,9.8,28.3,16.1c5.9,4.1,11.6,8.5,16.9,13.4c2.4,2.2,4.7,4.4,7.1,6.6c1.1,1,1.8,2.2,2.2,3.7
			c0.4,1.7,0,3.2-0.9,4.5c-5.5,7.7-11.1,15.3-16.7,23c-2.1,2.9-4.2,5.7-6.2,8.6c-2.1,3.1-6.8,3.3-9.3,0.7c-2.3-2.5-4.7-4.9-7.2-7.3
			c-6.7-6.5-14.2-12.1-22.2-16.8c-8.6-5.1-17.8-9.2-27.3-12.2c-5.7-1.8-11.5-3.2-17.5-4c-4.6-0.7-9.2-1.2-13.9-1.3
			c-3.2-0.1-6.4-0.2-9.6-0.1c-5.3,0.2-10.6,0.6-15.9,1.4c-7.8,1.1-15.4,3.1-22.9,5.8c-8.4,3-16.4,6.9-24.1,11.6
			c-5.5,3.3-10.6,7.1-15.5,11.2c-4.9,4.2-9.5,8.7-13.7,13.5c-3.7,4.3-7.2,8.7-10.3,13.4c-7.6,11.8-13.3,24.4-16.9,38
			c-1.3,4.9-2.2,9.9-2.8,14.9C125.8,201.3,125.4,207,125.4,212.6z"/>
	</g>
</g>
<g id="Téglalap_1_xA0_Kép_1_" class="st2">
</g>
</svg>
