<?xml version="1.0" encoding="utf-8"?>
<!-- Generator: Adobe Illustrator 23.0.2, SVG Export Plug-In . SVG Version: 6.00 Build 0)  -->
<svg version="1.1" id="Réteg_1" xmlns="http://www.w3.org/2000/svg" xmlns:xlink="http://www.w3.org/1999/xlink" x="0px" y="0px"
	 viewBox="0 0 566.9 566.9" style="enable-background:new 0 0 566.9 566.9;" xml:space="preserve" width="150" height="150">
<style type="text/css">
	.st1{
		-webkit-filter: drop-shadow( 0px 0px 10px rgba(0,0,0,1));
  	filter: drop-shadow( 0px 0px 10px rgba(0,0,0,1));
	}
	.st2,.st3{
		-webkit-filter: drop-shadow( 0px 0px 10px rgba(250,250,250,1));
  	filter: drop-shadow( 0px 0px 10px rgba(250,250,250,1));
	}
	.st1{fill:#FAFAFA;}
	.st2{fill:#69AC6B;
	animation: rotate 4s;
	animation-iteration-count: infinite;
    transform-origin: 50% 50%;
    display: inline-block;
    animation-timing-function: ease;
    }
 	.st3{fill:#4098B6;
 	animation: rotate 4s;
	animation-iteration-count: infinite;
    transform-origin: 50% 50%;
    display: inline-block;
    animation-timing-function: ease;
    }
    
 @keyframes rotate {
 	0% { transform: rotate(0deg);}
 	50% {transform: rotate(720deg);}
 	}
 	
</style>
<g>
	<path class="st1" d="M461.6,461.6c-49.1,49.1-108.4,73.6-178.1,73.6c-69.7,0-129.1-24.5-178.1-73.6
		c-49.1-49.1-73.6-108.4-73.6-178.1c0-69.7,24.5-129,73.6-178.1c49.1-49.1,108.4-73.6,178.1-73.6c69.7,0,129,24.5,178.1,73.6
		l0.6,0.6l-76.4,76.4l-0.6-0.6c-28.1-28.1-62-42.1-101.7-42.1c-39.7,0-73.6,14-101.7,42.1c-28.1,28.1-42.1,62-42.1,101.7
		c0,39.7,14.1,73.6,42.1,101.7c28.1,28.1,62,42.1,101.7,42.1c39.7,0,73.6-14.1,101.7-42.1l0.6-0.6l76.4,76.4L461.6,461.6z"/>
	<g>
		<path class="st2" d="M278.7,190.9c-19.6,0-36.4,6.9-50.3,20.8c-13.9,13.9-20.8,30.7-20.8,50.3c0,19.6,6.9,36.4,20.8,50.3
			c13.9,13.9,30.7,20.8,50.3,20.8"/>
		<path class="st3" d="M292.2,376.1c19.6,0,36.4-6.9,50.3-20.8c13.9-13.9,20.8-30.6,20.8-50.3c0-19.6-6.9-36.4-20.8-50.3
			c-13.9-13.9-30.6-20.8-50.3-20.8"/>
	</g>
</g>
</svg>
