<?xml version="1.0" encoding="utf-8"?>
<!-- Generator: Adobe Illustrator 27.3.1, SVG Export Plug-In . SVG Version: 6.00 Build 0)  -->
<svg version="1.2" baseProfile="tiny" id="Layer_1" xmlns="http://www.w3.org/2000/svg" xmlns:xlink="http://www.w3.org/1999/xlink"
	 x="0px" y="0px" viewBox="0 0 500 500" overflow="visible" xml:space="preserve">
<circle fill="#FFFFFF" cx="250" cy="250" r="250"/>
<g>
	<ellipse fill="#D8D8D8" cx="250.9" cy="435.5" rx="104.6" ry="9.8"/>
	<g>
		<path fill="#B4D710" d="M301.6,377.2l-2.7,34.8c0,0,37.9-10.7,37.9,11.5c0,22.2-59.3,20.7-65.4,8c-6.1-12.6,0-46.7,0-46.7
			l14.9-19.5L301.6,377.2z"/>
		<path fill="#B4D710" d="M197.7,377.2l2.7,34.8c0,0-37.9-10.7-37.9,11.5c0,22.2,59.3,20.7,65.4,8c6.1-12.6,0-46.7,0-46.7L213,365.3
			L197.7,377.2z"/>
		<path fill="#B4D710" d="M356.6,320.3c-31.3,113.5-180.7,81-206.4,21.6c-12-27.7-31.1-102.5-18.7-165.4
			c7.7-39.1,27.5-73.6,68.7-89.2h0c13.8-5.2,30-8.3,48.9-8.7c19.5-0.5,36.3,2,50.7,6.9c40.2,13.8,61,46.8,68.8,88.2
			C376.7,217.5,370.3,270.6,356.6,320.3z"/>
		<g>
			<path fill="#D5ED24" d="M350.1,224.4c4.6,2.3,4.6,8.9,0,11.2c-2.8,1.4-6.2,3-10.1,4.7c-3.2,1.4-6.7,2.8-10.5,4.3
				c-1.9,0.7-3.8,1.4-5.9,2.1c-19.4,6.9-45,13.3-73,13.3c-26.4,0-50.7-2.7-69.6-5.8c-3.8-0.6-7.4-1.3-10.8-1.9
				c-3.8-0.7-7.2-1.4-10.4-2.1c-2.5-0.5-4.8-1.1-6.9-1.5c-5.1-1.2-6.6-7.9-2.4-11c7.8-5.9,20-14.2,35-21.4c3-1.5,6.2-2.9,9.4-4.2
				c14.2-5.9,30.5-10.6,48-11.7c2.5-0.2,5.1-0.2,7.7-0.2c1,0,1.9,0,2.9,0c17.7,0.3,34.3,3.1,49,6.8c3.4,0.9,6.6,1.8,9.8,2.7
				C328.6,214.4,341.7,220.2,350.1,224.4z"/>
			<path fill="#A0A800" d="M343.3,230c0,0-6.4,3.9-17.3,8.6c-2.7,1.2-5.7,2.4-8.9,3.6c-1.6,0.6-3.2,1.2-4.9,1.8
				c-16.4,5.8-37.9,11.2-61.5,11.2c-22.3,0-42.7-2.3-58.7-4.9c-3.2-0.5-6.3-1.1-9.1-1.6c-3.2-0.6-6.1-1.2-8.7-1.7
				c-10.1-2.2-16-3.9-16-3.9s14.9-13.8,37.8-24.8c2.5-1.2,5.2-2.4,7.9-3.6c12-5,25.8-8.9,40.4-9.8c2.1-0.1,4.3-0.2,6.5-0.2
				c0.8,0,1.6,0,2.4,0c14.9,0.2,29,2.6,41.3,5.7c2.8,0.7,5.6,1.5,8.2,2.3C327.2,220.1,343.3,230,343.3,230z"/>
			<path fill="#F9394A" d="M312.2,244c-16.4,5.8-37.9,11.2-61.5,11.2c-22.3,0-42.7-2.3-58.7-4.9c16.3-8.7,37.6-16.7,61-16.7
				C275.5,233.6,296.2,238.5,312.2,244z"/>
			<path fill="#FFFFFF" d="M326,238.6c-2.7,1.2-5.7,2.4-8.9,3.6v-15.6L326,238.6z"/>
			<path fill="#FFFFFF" d="M302.7,212.7l-6.2,11.6l-2-13.9C297.3,211.2,300,211.9,302.7,212.7z"/>
			<path fill="#FFFFFF" d="M253.1,204.7l-1.8,13.2l-7.1-13c2.1-0.1,4.3-0.2,6.5-0.2C251.5,204.7,252.3,204.7,253.1,204.7z"/>
			<path fill="#FFFFFF" d="M205.4,228.4l-9.6-10.2c2.5-1.2,5.2-2.4,7.9-3.6L205.4,228.4z"/>
			<path fill="#FFFFFF" d="M183.3,235.3l-0.4,13.4c-3.2-0.6-6.1-1.2-8.7-1.7L183.3,235.3z"/>
		</g>
		<g>
			<path fill="#B4D710" d="M367.2,245.6c0,0,28.7,32,38.5-9.1c9.8-41.1,66.5-32,44.4,18.3c-22.2,50.2-73.7,28.9-82.8,2.7l-10.4-9.6
				L367.2,245.6z"/>
			<g>
				<path fill="#606D00" d="M422.2,216.7c2.2,0.6,1.3-14.3-1.5-15.3C418,200.4,419,215.9,422.2,216.7z"/>
				<path fill="#606D00" d="M431.8,215.5c2.1,0.9,3.5-14,0.9-15.4C430.1,198.7,428.7,214.2,431.8,215.5z"/>
				<path fill="#606D00" d="M440.4,218.4c1.5,1.8,9.6-10.8,7.9-13.2C446.7,202.8,438.3,215.8,440.4,218.4z"/>
				<path fill="#606D00" d="M445.8,224.8c0.5,2.3,13.5-5.2,13.1-8.1C458.5,213.8,445.1,221.5,445.8,224.8z"/>
				<path fill="#606D00" d="M449.3,233.4c-0.4,2.3,14.4,0.4,15.2-2.4C465.3,228.1,449.9,230.1,449.3,233.4z"/>
			</g>
			<path fill="#D5ED24" d="M414.4,230.8c2-7.9,10.9-12.5,19.9-10.2c8.9,2.3,14.5,10.6,12.4,18.5
				C444.7,247.1,412.4,238.8,414.4,230.8z"/>
		</g>
		<g>
			<path fill="#B4D710" d="M132.8,245.6c0,0-28.7,32-38.5-9.1c-9.8-41.1-66.5-32-44.4,18.3c22.2,50.2,73.7,28.9,82.8,2.7l10.4-9.6
				L132.8,245.6z"/>
			<g>
				<path fill="#606D00" d="M77.8,216.7c-2.2,0.6-1.3-14.3,1.5-15.3C82,200.4,81,215.9,77.8,216.7z"/>
				<path fill="#606D00" d="M68.2,215.5c-2.1,0.9-3.5-14-0.9-15.4C69.9,198.7,71.3,214.2,68.2,215.5z"/>
				<path fill="#606D00" d="M59.6,218.4c-1.5,1.8-9.6-10.8-7.9-13.2C53.3,202.8,61.7,215.8,59.6,218.4z"/>
				<path fill="#606D00" d="M54.2,224.8c-0.5,2.3-13.5-5.2-13.1-8.1C41.5,213.8,54.9,221.5,54.2,224.8z"/>
				<path fill="#606D00" d="M50.7,233.4c0.4,2.3-14.4,0.4-15.2-2.4C34.7,228.1,50.1,230.1,50.7,233.4z"/>
			</g>
			<path fill="#D5ED24" d="M85.6,230.8c-2-7.9-10.9-12.5-19.9-10.2c-8.9,2.3-14.5,10.6-12.4,18.5C55.3,247.1,87.6,238.8,85.6,230.8z
				"/>
		</g>
		<g>
			<path fill="#879100" d="M368.5,173.8c-10.2,10.2-24.3,16.6-39.9,16.6c-31.1,0-56.4-25.2-56.4-56.4c0-20.6,11-38.5,27.5-48.4
				C339.8,99.4,360.7,132.4,368.5,173.8z"/>
			<circle fill="#B4D710" cx="328.6" cy="123.4" r="56.4"/>
			
				<ellipse transform="matrix(0.7071 -0.7071 0.7071 0.7071 9.0044 268.4751)" fill="#FFFFFF" cx="328.6" cy="123.4" rx="50.2" ry="50.2"/>
			
				<ellipse transform="matrix(0.2298 -0.9732 0.9732 0.2298 127.9684 418.8126)" fill="#66BDC8" cx="328.6" cy="128.6" rx="32" ry="32"/>
			<circle fill="#3C6A71" cx="328.6" cy="128.6" r="14.7"/>
			
				<ellipse transform="matrix(0.9585 -0.2852 0.2852 0.9585 -18.4898 97.5955)" fill="#FFFFFF" cx="325.8" cy="112.3" rx="12.8" ry="6.6"/>
			<circle fill="#FFFFFF" cx="338.6" cy="144.2" r="6.3"/>
		</g>
		<g>
			<path fill="#879100" d="M224.8,134c0,31.1-25.2,56.4-56.4,56.4c-14.1,0-27.1-5.2-37-13.8c7.7-39.1,27.5-73.6,68.7-89.2h0
				C215,97.5,224.8,114.6,224.8,134z"/>
			<circle fill="#B4D710" cx="168.4" cy="123.4" r="56.4"/>
			
				<ellipse transform="matrix(0.7071 -0.7071 0.7071 0.7071 -37.901 155.2353)" fill="#FEFEFE" cx="168.4" cy="123.4" rx="50.2" ry="50.2"/>
			
				<ellipse transform="matrix(0.2521 -0.9677 0.9677 0.2521 1.5691 259.1478)" fill="#66BDC8" cx="168.4" cy="128.6" rx="32" ry="32"/>
			<circle fill="#3C6A71" cx="168.4" cy="128.6" r="14.7"/>
			<path fill="#FEFEFE" d="M177.9,108.6c1,3.5-3.6,8-10.4,10c-6.8,2-13.1,0.8-14.1-2.7s3.6-8,10.4-10
				C170.5,103.9,176.9,105.1,177.9,108.6z"/>
			<circle fill="#FEFEFE" cx="178.4" cy="144.2" r="6.3"/>
		</g>
		
			<ellipse transform="matrix(0.1602 -0.9871 0.9871 0.1602 6.6437 581.2073)" fill="#A0A800" cx="344.9" cy="286.7" rx="6.4" ry="6.4"/>
		<circle fill="#A0A800" cx="338.6" cy="308.5" r="13.4"/>
		<circle fill="#A0A800" cx="338.5" cy="332" r="3"/>
		<circle fill="#A0A800" cx="314.6" cy="338.2" r="7"/>
		<ellipse transform="matrix(0.7071 -0.7071 0.7071 0.7071 -153.587 333.7013)" fill="#A0A800" cx="326" cy="352.2" rx="7" ry="7"/>
		<circle fill="#A0A800" cx="302.7" cy="363.3" r="12.5"/>
		
			<ellipse transform="matrix(0.9239 -0.3827 0.3827 0.9239 -19.2333 96.4667)" fill="#A0A800" cx="232.9" cy="96.6" rx="5.5" ry="5.5"/>
		
			<ellipse transform="matrix(0.1602 -0.9871 0.9871 0.1602 125.9757 335.6818)" fill="#A0A800" cx="260.3" cy="93.8" rx="8.2" ry="8.2"/>
		<circle fill="#A0A800" cx="248.7" cy="112.3" r="11.6"/>
	</g>
</g>
</svg>
