<?xml version="1.0" encoding="utf-8"?>
<!-- Generator: Adobe Illustrator 27.3.1, SVG Export Plug-In . SVG Version: 6.00 Build 0)  -->
<svg version="1.2" baseProfile="tiny" id="Layer_1" xmlns="http://www.w3.org/2000/svg" xmlns:xlink="http://www.w3.org/1999/xlink"
	 x="0px" y="0px" viewBox="0 0 500 500" overflow="visible" xml:space="preserve">
<circle fill="#FFFFFF" cx="250" cy="250" r="250"/>
<g>
	<ellipse fill="#D8D8D8" cx="252.1" cy="473.5" rx="93.6" ry="7.2"/>
	<g>
		<g>
			<g>
				<path fill="#082D3D" d="M333.3,457c-6.5-16.5-37-0.9-37-0.9c8.7-40.8,6.2-77.8,6.2-77.8L300,368c0,0-21.5-8.4-14.6,14.9
					c5.3,18.1,0.3,63.4-2.2,82.8c-0.6,4.8,3.3,9,8.1,8.8C307.5,473.7,338.6,470.4,333.3,457z"/>
				<path fill="#082D3D" d="M210.8,382.9c6.8-23.3-14.6-14.9-14.6-14.9l-2.5,10.3c0,0-2.5,37,6.2,77.8c0,0-30.5-15.6-37,0.9
					c-5.3,13.4,25.8,16.7,42,17.5c4.9,0.2,8.8-4,8.1-8.8C210.4,446.3,205.5,401,210.8,382.9z"/>
			</g>
			<path fill="#F07EB9" d="M163.9,128.8c0,0-27.9,5.4-43.3,29.2c0,0,4.1,3.9,10.7,0c0,0-15.5,14.4-15.7,31.5
				c-0.2,17.1-5.1,18-5.1,18s7.1,1.4,10.1-3c0,0,0.6,21.5-6.8,39.2c0,0,4.4,1.3,7.9-4.7c0,0-3.5,12.1-2.8,27.4
				c0.7,15.3-3.3,29.3-3.3,29.3s3.7,1.4,6.1-3.5c0,0,5.6,18.9,0.9,35.5c-4.7,16.6,0.7,23.8,0.7,23.8s1.8-0.7,4.5-9.3
				c0,0,6.9,15.9,10.4,27.1c3.5,11.2,11.4,14.9,11.4,14.9l0.7-8.2c0,0,22.4,20.5,33.6,27.8c0,0,2.6-5.8,1.6-8.9
				c0,0,22.2,15.9,39.2,21.5c0,0,2.8-5.8,2.3-9.8c0,0,13,3.3,16.4,12.4c0,0,2.5-0.9,5.3-7.9l-1.5-291.7L163.9,128.8z"/>
			<path fill="#F07EB9" d="M333.5,128.8c0,0,27.9,5.4,43.3,29.2c0,0-4.1,3.9-10.7,0c0,0,15.5,14.4,15.7,31.5c0.2,17.1,5.1,18,5.1,18
				s-7.1,1.4-10.1-3c0,0-0.6,21.5,6.8,39.2c0,0-4.4,1.3-7.9-4.7c0,0,3.5,12.1,2.8,27.4c-0.7,15.3,3.3,29.3,3.3,29.3
				s-3.7,1.4-6.1-3.5c0,0-5.6,18.9-0.9,35.5c4.7,16.6-0.7,23.8-0.7,23.8s-1.8-0.7-4.5-9.3c0,0-6.9,15.9-10.4,27.1
				c-3.5,11.2-11.4,14.9-11.4,14.9L347,376c0,0-22.4,20.5-33.6,27.8c0,0-2.6-5.8-1.6-8.9c0,0-22.2,15.9-39.2,21.5
				c0,0-2.8-5.8-2.3-9.8c0,0-13,3.3-16.4,12.4c0,0-2.5-0.9-5.3-7.9l1.5-291.7L333.5,128.8z"/>
			<path fill="#F07EB9" d="M243.6,98.7c74.4-0.1,136.9,45.7,130.4,126c-6.5,80.3,1.6,185.8-130.4,176.4
				c-131.9-9.3-113.3-103.8-113.3-141C130.3,224.7,101,98.8,243.6,98.7z"/>
			<g>
				<path fill="#F07EB9" d="M135.3,286.3c0,0-39.6,10.6-26-27.4c13.6-37.9-36.5-60.2-45-8.5c-8.4,51.7,43.8,61.5,64.8,45.3l13.3-2.2
					L135.3,286.3z"/>
				<g>
					<path fill="#082D3D" d="M106.3,234.6c-2.1-0.7,6.4-12.1,9.2-11.5C118.2,223.7,109.4,235.6,106.3,234.6z"/>
					<path fill="#082D3D" d="M99.3,228.6c-2.2-0.4,4.5-13,7.3-12.7C109.4,216.1,102.5,229.1,99.3,228.6z"/>
					<path fill="#082D3D" d="M90.9,226.5c-2.1,0.7-2.1-13.6,0.5-14.7S94,225.5,90.9,226.5z"/>
					<path fill="#082D3D" d="M83.3,228.8c-1.6,1.5-8.1-11.1-6.3-13.3C78.8,213.3,85.6,226.5,83.3,228.8z"/>
					<path fill="#082D3D" d="M76,233.8c-0.8,2-11.7-7.2-10.9-9.9C66,221.2,77.2,230.8,76,233.8z"/>
				</g>
				<path fill="#FFA6D7" d="M105.2,249.9c2.5-7.4-2.2-15.7-10.5-18.5c-8.3-2.8-17.1,0.9-19.6,8.3
					C72.6,247.2,102.7,257.3,105.2,249.9z"/>
			</g>
			<g>
				<path fill="#F07EB9" d="M365.1,286.3c0,0,39.6,10.6,26-27.4c-13.6-37.9,36.5-60.2,45-8.5c8.4,51.7-43.8,61.5-64.8,45.3
					l-13.3-2.2L365.1,286.3z"/>
				<g>
					<path fill="#082D3D" d="M394.1,234.6c2.1-0.7-6.4-12.1-9.2-11.5C382.2,223.7,391,235.6,394.1,234.6z"/>
					<path fill="#082D3D" d="M401.1,228.6c2.2-0.4-4.5-13-7.3-12.7C391,216.1,397.9,229.1,401.1,228.6z"/>
					<path fill="#082D3D" d="M409.5,226.5c2.1,0.7,2.1-13.6-0.5-14.7C406.4,210.7,406.4,225.5,409.5,226.5z"/>
					<path fill="#082D3D" d="M417.1,228.8c1.6,1.5,8.1-11.1,6.3-13.3C421.6,213.3,414.8,226.5,417.1,228.8z"/>
					<path fill="#082D3D" d="M424.4,233.8c0.8,2,11.7-7.2,10.9-9.9C434.4,221.2,423.2,230.8,424.4,233.8z"/>
				</g>
				<path fill="#FFA6D7" d="M395.2,249.9c-2.5-7.4,2.2-15.7,10.5-18.5c8.3-2.8,17.1,0.9,19.6,8.3
					C427.8,247.2,397.7,257.3,395.2,249.9z"/>
			</g>
			<path fill="#70234F" d="M342.6,311.4c0,29-10.6,53.6-25.3,62.7c-4,2.5-8.2,3.8-12.7,3.8c-1.1,0-2.2-0.1-3.4-0.2
				c-0.2,0-0.4-0.1-0.5-0.1c-2.2-0.4-4.3-1.1-6.3-2.1c-11.8-5.7-25.1-7.3-38.2-5.7c-2.4,0.3-4.9,0.5-7.4,0.5c-2.5,0-5-0.2-7.4-0.5
				c-13-1.6-26.3-0.1-38,5.6c-2.2,1.1-4.4,1.8-6.7,2.2c0,0-0.1,0-0.1,0c-1.1,0.2-2.2,0.3-3.4,0.3c-4.6,0-9-1.4-13-4
				c-14.6-9.3-25-33.8-25-62.5c0-28.7,10.4-53.2,25-62.5c4.1-2.6,8.4-4,13-4c1.2,0,2.3,0.1,3.4,0.3c2.3,0.4,4.6,1.1,6.8,2.2
				c11.8,5.7,25,7.3,38,5.6c2.4-0.3,4.9-0.5,7.4-0.5c2.5,0,5,0.2,7.4,0.5c13,1.6,26.3,0.1,38.2-5.7c2.2-1.1,4.4-1.8,6.8-2.1
				c1.1-0.2,2.3-0.3,3.4-0.3c4.6,0,8.9,1.4,13,4C332.2,258.2,342.6,282.7,342.6,311.4z"/>
			<path fill="#1BADB7" d="M230.6,105.4c0,0-34.9-22-43-86.5c0,0-25.8,41.9-10.7,107.5C176.8,126.4,212,139.3,230.6,105.4z"/>
			<g>
				<circle fill="#D3549A" cx="249.4" cy="192.9" r="44.7"/>
				
					<ellipse transform="matrix(0.2363 -0.9717 0.9717 0.2363 10.1239 384.0797)" fill="#F07EB9" cx="249.4" cy="185.6" rx="41.9" ry="41.9"/>
				
					<ellipse transform="matrix(0.2356 -0.9719 0.9719 0.2356 10.2732 384.2596)" fill="#FFFFFF" cx="249.4" cy="185.6" rx="37.4" ry="37.4"/>
				
					<ellipse transform="matrix(0.2229 -0.9748 0.9748 0.2229 9.1083 390.3496)" fill="#66BDC8" cx="249.4" cy="189.5" rx="23.8" ry="23.8"/>
				<circle fill="#3C6A71" cx="249.4" cy="189.5" r="10.9"/>
				<path fill="#FFFFFF" d="M256.4,174.6c0.8,2.6-2.7,5.9-7.7,7.4c-5,1.5-9.7,0.6-10.5-2c-0.8-2.6,2.7-5.9,7.7-7.4
					C251,171.1,255.7,172,256.4,174.6z"/>
				<circle fill="#FFFFFF" cx="256.8" cy="201.1" r="4.7"/>
			</g>
			<g>
				<path fill="#FFFFFF" d="M317.6,248.9c-0.1,0.9-0.3,1.9-0.6,2.9c-2.3,9.1-7.8,15.6-12.4,14.5c-4.6-1.1-6.4-9.5-4.1-18.6
					c0.2-0.8,0.5-1.7,0.7-2.5c1.1-0.2,2.3-0.3,3.4-0.3C309.1,244.9,313.5,246.3,317.6,248.9z"/>
				<path fill="#FFFFFF" d="M193.2,266.2c-4.6,1.1-10.1-5.3-12.4-14.5c-0.2-1-0.4-1.9-0.6-2.9c4.1-2.6,8.4-4,13-4
					c1.2,0,2.3,0.1,3.4,0.3c0.3,0.8,0.5,1.6,0.7,2.5C199.6,256.8,197.7,265.1,193.2,266.2z"/>
			</g>
			<path fill="#0E1216" d="M278.3,352.8c0,0.2,0,0.5,0,0.7c-0.1,6-2,11.5-5.2,16.1c-5.6-0.6-11.3-0.5-16.9,0.3
				c-2.4,0.3-4.9,0.5-7.4,0.5c-2.5,0-5-0.2-7.4-0.5c-5.8-0.7-11.6-0.8-17.4-0.2c-3.1-4.5-5-10-5.2-15.9c0-0.3,0-0.7,0-1
				c0-16.4,13.3-29.8,29.8-29.8C265,323,278.3,336.3,278.3,352.8z"/>
			<g>
				<path fill="#FFFFFF" d="M197.1,376c-0.1,0.6-0.3,1.1-0.4,1.6c0,0-0.1,0-0.1,0c-1.1,0.2-2.2,0.3-3.4,0.3c-4.6,0-9-1.4-13-4
					c0.1-0.7,0.3-1.3,0.4-2c2.3-9.1,7.8-15.6,12.4-14.5C197.5,358.6,199.4,366.9,197.1,376z"/>
				<path fill="#FFFFFF" d="M317.3,374.2c-4,2.5-8.2,3.8-12.7,3.8c-1.1,0-2.2-0.1-3.4-0.2c-0.2,0-0.4-0.1-0.5-0.1
					c-0.1-0.5-0.3-1-0.4-1.6c-2.3-9.1-0.4-17.5,4.1-18.6c4.6-1.1,10.1,5.3,12.4,14.5C317,372.7,317.1,373.4,317.3,374.2z"/>
			</g>
			<path fill="#FE3C4C" d="M301.2,377.7c-2.3-0.4-4.6-1.1-6.8-2.2c-6.7-3.3-13.9-5.2-21.3-5.9c-5.6-0.6-11.3-0.5-16.9,0.3
				c-2.4,0.3-4.9,0.5-7.4,0.5c-2.5,0-5-0.2-7.4-0.5c-5.8-0.7-11.6-0.8-17.4-0.2c-7.1,0.8-14.1,2.7-20.6,5.8
				c-2.2,1.1-4.5,1.8-6.9,2.2c3.5-9.9,11.5-18.3,22.3-23.9c8.6-4.4,18.9-7,30.1-7c10.9,0,21,2.5,29.5,6.7
				C289.4,359,297.7,367.6,301.2,377.7z"/>
		</g>
		<g>
			<circle fill="#BC3F89" cx="207.4" cy="391.7" r="4.4"/>
			<circle fill="#BC3F89" cx="217.9" cy="380.9" r="5.3"/>
			<path fill="#BC3F89" d="M218.6,389.8c0,1-0.8,1.8-1.8,1.8s-1.8-0.8-1.8-1.8s0.8-1.8,1.8-1.8S218.6,388.8,218.6,389.8z"/>
			<circle fill="#BC3F89" cx="227.4" cy="394.1" r="7.4"/>
			<circle fill="#BC3F89" cx="238.1" cy="394.8" r="1.7"/>
			<path fill="#BC3F89" d="M244.9,388c0,1.6-1.3,2.9-2.9,2.9c-1.6,0-2.9-1.3-2.9-2.9c0-1.6,1.3-2.9,2.9-2.9
				C243.6,385.1,244.9,386.4,244.9,388z"/>
			<circle fill="#BC3F89" cx="252.1" cy="397.8" r="9.4"/>
		</g>
		<g>
			<path fill="#FF9FD4" d="M309.8,134.3c-1,2.2-3.6,3.2-5.8,2.2c-2.2-1-3.2-3.6-2.2-5.8c1-2.2,3.6-3.2,5.8-2.2
				C309.8,129.5,310.8,132.1,309.8,134.3z"/>
			<path fill="#FF9FD4" d="M324.6,129.2c-1.2,2.7-4.4,3.9-7,2.6c-2.7-1.2-3.9-4.4-2.6-7c1.2-2.7,4.4-3.9,7-2.6
				C324.7,123.4,325.9,126.6,324.6,129.2z"/>
			<path fill="#FF9FD4" d="M316.8,135.5c-0.4,0.9-1.5,1.3-2.4,0.9c-0.9-0.4-1.3-1.5-0.9-2.4c0.4-0.9,1.5-1.3,2.4-0.9
				C316.8,133.5,317.2,134.6,316.8,135.5z"/>
			<ellipse transform="matrix(0.9603 -0.279 0.279 0.9603 -27.0648 95.8029)" fill="#FF9FD4" cx="323" cy="143" rx="7.4" ry="7.4"/>
			<path fill="#FF9FD4" d="M334,148.8c-0.4,0.8-1.4,1.2-2.2,0.8c-0.8-0.4-1.2-1.4-0.8-2.2c0.4-0.8,1.4-1.2,2.2-0.8
				S334.4,147.9,334,148.8z"/>
			<path fill="#FF9FD4" d="M341.5,144.7c-0.7,1.5-2.4,2.1-3.9,1.5c-1.5-0.7-2.1-2.4-1.5-3.9c0.7-1.5,2.4-2.1,3.9-1.5
				C341.5,141.5,342.1,143.2,341.5,144.7z"/>
			
				<ellipse transform="matrix(0.7071 -0.7071 0.7071 0.7071 -9.9326 289.0764)" fill="#FF9FD4" cx="344" cy="156.5" rx="9.4" ry="9.4"/>
		</g>
	</g>
</g>
</svg>
